<svg width="109" height="123" viewBox="0 0 109 123" fill="none" xmlns="http://www.w3.org/2000/svg">
<g clip-path="url(#clip0_59_22)">
<mask id="mask0_59_22" style="mask-type:luminance" maskUnits="userSpaceOnUse" x="0" y="0" width="109" height="123">
<path d="M108.67 0H0V122.88H108.67V0Z" fill="white"/>
</mask>
<g mask="url(#mask0_59_22)">
<path fill-rule="evenodd" clip-rule="evenodd" d="M25.14 53.37C23.63 53.37 22.39 54.61 22.39 56.14C22.39 57.67 23.62 58.91 25.14 58.91H45.25C46.76 58.91 48 57.67 48 56.14C48 54.61 46.77 53.37 45.25 53.37H25.14ZM77.77 0C94.83 0 108.67 13.83 108.67 30.9C108.67 43.22 101.46 53.85 91.03 58.82V116.51C91.03 118.27 90.32 119.86 89.16 121.01C88 122.17 86.41 122.88 84.66 122.88H6.37C4.61 122.88 3.02 122.17 1.87 121.01C0.71 119.85 0 118.26 0 116.51V22.4C0 20.64 0.71 19.05 1.87 17.9C3.03 16.74 4.62 16.03 6.37 16.03H50.67C55.93 6.47 66.09 0 77.77 0ZM85.55 60.81C83.07 61.46 80.46 61.8 77.77 61.8C60.71 61.8 46.87 47.97 46.87 30.9C46.87 27.63 47.38 24.48 48.32 21.52H6.37C6.13 21.52 5.9 21.62 5.74 21.78C5.58 21.95 5.48 22.17 5.48 22.41V116.5C5.48 116.74 5.58 116.96 5.74 117.13C5.91 117.29 6.13 117.39 6.37 117.39H84.65C84.89 117.39 85.12 117.29 85.28 117.13C85.44 116.96 85.54 116.74 85.54 116.5V60.81H85.55ZM25.14 92.22C23.63 92.22 22.4 93.45 22.4 94.96C22.4 96.47 23.63 97.7 25.14 97.7H63.61C65.12 97.7 66.35 96.47 66.35 94.96C66.35 93.45 65.12 92.22 63.61 92.22H25.14ZM25.14 72.81C23.63 72.81 22.4 74.04 22.4 75.55C22.4 77.06 23.63 78.29 25.14 78.29H63.61C65.12 78.29 66.35 77.06 66.35 75.55C66.35 74.04 65.12 72.81 63.61 72.81H25.14ZM68.71 25.78L74.38 31.18L86.14 19.26C87.11 18.28 87.71 17.49 88.91 18.72L92.78 22.68C94.05 23.94 93.99 24.67 92.79 25.84L76.59 41.78C74.06 44.26 74.5 44.41 71.94 41.87L62.19 32.17C61.66 31.59 61.72 31.01 62.3 30.43L66.79 25.77C67.46 25.07 68.01 25.11 68.71 25.78Z" fill="#4267B2"/>
</g>
</g>
<defs>
<clipPath id="clip0_59_22">
<rect width="109" height="123" fill="white"/>
</clipPath>
</defs>
</svg>
