<svg width="94" height="82" viewBox="0 0 94 82" fill="none" xmlns="http://www.w3.org/2000/svg">
<path d="M93.9947 15.9086C93.9947 17.7371 93.4287 19.2914 92.2967 20.5714L48.3921 70.2171L40.1448 79.5429C39.0129 80.8229 37.6383 81.4629 36.0212 81.4629C34.4041 81.4629 33.0295 80.8229 31.8976 79.5429L23.6503 70.2171L1.69797 45.3943C0.56599 44.1143 0 42.56 0 40.7314C0 38.9029 0.56599 37.3486 1.69797 36.0686L9.94525 26.7429C11.0772 25.4629 12.4518 24.8229 14.0689 24.8229C15.686 24.8229 17.0605 25.4629 18.1925 26.7429L36.0212 46.9714L75.8022 1.92C76.9342 0.64 78.3087 0 79.9258 0C81.5429 0 82.9175 0.64 84.0495 1.92L92.2967 11.2457C93.4287 12.5257 93.9947 14.08 93.9947 15.9086Z" fill="#0CE822"/>
</svg>
