<svg width="236" height="240" viewBox="0 0 236 240" fill="none" xmlns="http://www.w3.org/2000/svg">
<path d="M210.3 57.9L178 25.6L87.6 115.2L120.2 147.6L210.3 57.9ZM70.6 163.6L112.8 153.4L81.9 122.7L70.6 163.6ZM230.6 12L224.1 5.5C216.9 -1.7 205.4 -1.7 198.2 5.5L185.9 17.7L218.2 50L230.6 37.7C237.8 30.8 237.8 19.2 230.6 12ZM192.2 214.8C192.2 217.5 190 219.7 187.3 219.7H164.1H154.8H25C22.3 219.7 20.1 217.5 20.1 214.8V34.8C20.1 32.1 22.3 29.9 25 29.9H150.7V9.7H25C11.2 9.7 0 20.9 0 34.7V214.8C0 228.6 11.2 239.8 25 239.8H154.8H164.1H187.3C201.1 239.8 212.3 228.6 212.3 214.8V94.1H192.2V214.8Z" fill="#015CB5"/>
</svg>
