<svg width="16" height="18" viewBox="0 0 16 18" fill="none" xmlns="http://www.w3.org/2000/svg">
<g clip-path="url(#clip0_59_2)">
<path d="M11.9592 1.96675V0.666748C11.9592 0.325078 11.6758 0.041748 11.3342 0.041748C10.9925 0.041748 10.7092 0.325078 10.7092 0.666748V1.91675H5.29251V0.666748C5.29251 0.325078 5.00918 0.041748 4.66751 0.041748C4.32584 0.041748 4.04251 0.325078 4.04251 0.666748V1.96675C1.79251 2.17508 0.700836 3.51675 0.534176 5.50841C0.517506 5.75008 0.717506 5.95008 0.950836 5.95008H15.0508C15.2925 5.95008 15.4925 5.74175 15.4675 5.50841C15.3008 3.51675 14.2092 2.17508 11.9592 1.96675Z" fill="url(#paint0_linear_59_2)"/>
<path d="M14.6667 7.19995H1.33333C0.875 7.19995 0.5 7.57495 0.5 8.03328V13.1666C0.5 15.6666 1.75 17.3333 4.66667 17.3333H11.3333C14.25 17.3333 15.5 15.6666 15.5 13.1666V8.03328C15.5 7.57495 15.125 7.19995 14.6667 7.19995ZM5.675 14.175C5.59167 14.2499 5.5 14.3083 5.4 14.35C5.3 14.3916 5.19167 14.4166 5.08333 14.4166C4.975 14.4166 4.86667 14.3916 4.76667 14.35C4.66667 14.3083 4.575 14.2499 4.49167 14.175C4.34167 14.0166 4.25 13.8 4.25 13.5833C4.25 13.3666 4.34167 13.15 4.49167 12.9916C4.575 12.9166 4.66667 12.8583 4.76667 12.8166C4.96667 12.7333 5.2 12.7333 5.4 12.8166C5.5 12.8583 5.59167 12.9166 5.675 12.9916C5.825 13.15 5.91667 13.3666 5.91667 13.5833C5.91667 13.8 5.825 14.0166 5.675 14.175ZM5.85 10.9833C5.80833 11.0833 5.75 11.175 5.675 11.2583C5.59167 11.3333 5.5 11.3916 5.4 11.4333C5.3 11.475 5.19167 11.5 5.08333 11.5C4.975 11.5 4.86667 11.475 4.76667 11.4333C4.66667 11.3916 4.575 11.3333 4.49167 11.2583C4.41667 11.175 4.35833 11.0833 4.31667 10.9833C4.275 10.8833 4.25 10.775 4.25 10.6666C4.25 10.5583 4.275 10.45 4.31667 10.35C4.35833 10.25 4.41667 10.1583 4.49167 10.075C4.575 10 4.66667 9.9416 4.76667 9.9C4.96667 9.8166 5.2 9.8166 5.4 9.9C5.5 9.9416 5.59167 10 5.675 10.075C5.75 10.1583 5.80833 10.25 5.85 10.35C5.89167 10.45 5.91667 10.5583 5.91667 10.6666C5.91667 10.775 5.89167 10.8833 5.85 10.9833ZM8.5917 11.2583C8.5083 11.3333 8.4167 11.3916 8.3167 11.4333C8.2167 11.475 8.1083 11.5 8 11.5C7.89167 11.5 7.78333 11.475 7.68333 11.4333C7.58333 11.3916 7.49167 11.3333 7.40833 11.2583C7.25833 11.1 7.16667 10.8833 7.16667 10.6666C7.16667 10.45 7.25833 10.2333 7.40833 10.075C7.49167 10 7.58333 9.9416 7.68333 9.9C7.88333 9.8083 8.1167 9.8083 8.3167 9.9C8.4167 9.9416 8.5083 10 8.5917 10.075C8.7417 10.2333 8.8333 10.45 8.8333 10.6666C8.8333 10.8833 8.7417 11.1 8.5917 11.2583Z" fill="url(#paint1_linear_59_2)"/>
</g>
<defs>
<linearGradient id="paint0_linear_59_2" x1="0.533196" y1="2.99591" x2="14.2441" y2="2.99591" gradientUnits="userSpaceOnUse">
<stop stop-color="#4267B2"/>
<stop offset="1" stop-color="#4267B2"/>
</linearGradient>
<linearGradient id="paint1_linear_59_2" x1="0.5" y1="12.2666" x2="14.2692" y2="12.2666" gradientUnits="userSpaceOnUse">
<stop stop-color="#4267B2"/>
<stop offset="1" stop-color="#4267B2"/>
</linearGradient>
<clipPath id="clip0_59_2">
<rect width="16" height="18" fill="white"/>
</clipPath>
</defs>
</svg>
