<svg width="20" height="16" viewBox="0 0 20 16" fill="none" xmlns="http://www.w3.org/2000/svg">
<g clip-path="url(#clip0_59_14)">
<path d="M5.52633 0.208252H13.6663C17.333 0.208252 19.1663 2.49992 19.1663 5.70825V7.9999C19.1663 12.5833 16.4163 15.7916 11.3747 15.7916H2.61133L3.58299 11.8958H10.403C13.6663 11.8958 15.2705 9.8333 15.2705 7.0283V6.85409C15.2705 5.24992 14.583 4.10409 12.5205 4.10409H4.55466L5.52633 0.208252Z" fill="url(#paint0_linear_59_14)"/>
<path d="M10.3762 6.37744H3.30871C2.31871 6.37744 1.45704 7.0558 1.20954 8.0091L0.980372 8.9441C0.897872 9.2833 1.15454 9.6133 1.50287 9.6133H8.57037C9.5604 9.6133 10.422 8.9349 10.6695 7.9816L10.8987 7.0466C10.9904 6.70745 10.7245 6.37744 10.3762 6.37744Z" fill="url(#paint1_linear_59_14)"/>
</g>
<defs>
<linearGradient id="paint0_linear_59_14" x1="2.61133" y1="7.9999" x2="17.808" y2="7.9999" gradientUnits="userSpaceOnUse">
<stop stop-color="#4267B2"/>
<stop offset="1" stop-color="#4267B2"/>
</linearGradient>
<linearGradient id="paint1_linear_59_14" x1="0.964842" y1="7.9954" x2="10.1004" y2="7.9954" gradientUnits="userSpaceOnUse">
<stop stop-color="#4267B2"/>
<stop offset="1" stop-color="#4267B2"/>
</linearGradient>
<clipPath id="clip0_59_14">
<rect width="20" height="16" fill="white"/>
</clipPath>
</defs>
</svg>
