<svg width="18" height="18" viewBox="0 0 18 18" fill="none" xmlns="http://www.w3.org/2000/svg">
<path d="M8.95065 0.84161L6.94232 5.51661H4.93398C4.60065 5.51661 4.27565 5.54161 3.95898 5.60827L4.79232 3.60827L4.82565 3.53327L4.87565 3.39994C4.90065 3.34161 4.91732 3.29161 4.94232 3.24994C5.90898 1.00827 6.99232 0.30827 8.95065 0.84161Z" fill="url(#paint0_linear_59_18)"/>
<path d="M14.6079 5.74176L14.5913 5.73343C14.0913 5.59176 13.5829 5.51676 13.0663 5.51676H7.84961L9.7246 1.15843L9.7496 1.1001C9.8663 1.14176 9.9913 1.2001 10.1163 1.24176L11.9579 2.01676C12.9829 2.44176 13.6996 2.88343 14.1413 3.41676C14.2163 3.51676 14.2829 3.60843 14.3496 3.71676C14.4246 3.83343 14.4829 3.9501 14.5163 4.0751C14.5496 4.1501 14.5746 4.21676 14.5913 4.29176C14.7163 4.71676 14.7246 5.2001 14.6079 5.74176Z" fill="url(#paint1_linear_59_18)"/>
<path d="M9.43359 13.7167H9.64189C9.89189 13.7167 10.1003 13.4917 10.1003 13.2167C10.1003 12.8667 10.0003 12.8167 9.78359 12.7334L9.43359 12.6084V13.7167Z" fill="url(#paint2_linear_59_18)"/>
<path d="M14.2422 6.93327C13.8672 6.82494 13.4755 6.7666 13.0672 6.7666H4.93385C4.36719 6.7666 3.83385 6.87494 3.33385 7.0916C1.88385 7.7166 0.867188 9.1583 0.867188 10.8333V12.4583C0.867188 12.6583 0.883848 12.8499 0.908848 13.0499C1.09219 15.6999 2.50885 17.1166 5.15885 17.2916C5.35052 17.3166 5.54219 17.3333 5.75052 17.3333H12.2505C15.3339 17.3333 16.9589 15.8666 17.1172 12.9499C17.1255 12.7916 17.1339 12.6249 17.1339 12.4583V10.8333C17.1339 8.9916 15.9089 7.4416 14.2422 6.93327ZM10.0672 11.9166C10.4505 12.0499 10.9672 12.3333 10.9672 13.2166C10.9672 13.9749 10.3755 14.5833 9.6422 14.5833H9.4339V14.7666C9.4339 15.0083 9.2422 15.1999 9.0005 15.1999C8.75885 15.1999 8.56719 15.0083 8.56719 14.7666V14.5833H8.49219C7.69219 14.5833 7.03385 13.9083 7.03385 13.0749C7.03385 12.8333 7.22552 12.6416 7.46719 12.6416C7.70885 12.6416 7.90052 12.8333 7.90052 13.0749C7.90052 13.4249 8.16719 13.7166 8.49219 13.7166H8.56719V12.3083L7.93385 12.0833C7.55052 11.9499 7.03385 11.6666 7.03385 10.7833C7.03385 10.0249 7.62552 9.4166 8.35885 9.4166H8.56719V9.2333C8.56719 8.9916 8.75885 8.79994 9.0005 8.79994C9.2422 8.79994 9.4339 8.9916 9.4339 9.2333V9.4166H9.5089C10.3089 9.4166 10.9672 10.0916 10.9672 10.9249C10.9672 11.1666 10.7755 11.3583 10.5339 11.3583C10.2922 11.3583 10.1005 11.1666 10.1005 10.9249C10.1005 10.5749 9.8339 10.2833 9.5089 10.2833H9.4339V11.6916L10.0672 11.9166Z" fill="url(#paint3_linear_59_18)"/>
<path d="M7.90039 10.7834C7.90039 11.1334 8.00039 11.1834 8.21706 11.2668L8.56706 11.3918V10.2834H8.35872C8.10039 10.2834 7.90039 10.5084 7.90039 10.7834Z" fill="url(#paint4_linear_59_18)"/>
<defs>
<linearGradient id="paint0_linear_59_18" x1="3.95898" y1="3.13995" x2="8.54108" y2="3.13995" gradientUnits="userSpaceOnUse">
<stop stop-color="#4267B2"/>
<stop offset="1" stop-color="#4267B2"/>
</linearGradient>
<linearGradient id="paint1_linear_59_18" x1="7.84961" y1="3.42093" x2="14.1292" y2="3.42093" gradientUnits="userSpaceOnUse">
<stop stop-color="#4267B2"/>
<stop offset="0.5" stop-color="#4267B2"/>
<stop offset="1" stop-color="#4267B2"/>
</linearGradient>
<linearGradient id="paint2_linear_59_18" x1="9.43359" y1="13.1626" x2="10.0456" y2="13.1626" gradientUnits="userSpaceOnUse">
<stop stop-color="#4267B2"/>
<stop offset="1" stop-color="#4267B2"/>
</linearGradient>
<linearGradient id="paint3_linear_59_18" x1="0.867188" y1="12.0499" x2="15.7992" y2="12.0499" gradientUnits="userSpaceOnUse">
<stop stop-color="#4267B2"/>
<stop offset="1" stop-color="#4267B2"/>
</linearGradient>
<linearGradient id="paint4_linear_59_18" x1="7.90039" y1="10.8376" x2="8.51236" y2="10.8376" gradientUnits="userSpaceOnUse">
<stop stop-color="#4267B2"/>
<stop offset="1" stop-color="#4267B2"/>
</linearGradient>
</defs>
</svg>
