<svg width="19" height="18" viewBox="0 0 19 18" fill="none" xmlns="http://www.w3.org/2000/svg">
<path d="M9.80069 16.0009C10.0526 16.0595 10.0757 16.3893 9.83039 16.4711L8.38199 16.9478C4.74285 18.1211 2.82701 17.1403 1.64451 13.5011L0.471178 9.88034C-0.702152 6.24113 0.269508 4.31614 3.90868 3.14281L4.30435 3.01178C4.70721 2.87836 5.10087 3.28301 4.98907 3.6924C4.94556 3.85173 4.90337 4.01687 4.86201 4.18781L3.96368 8.02865C2.95535 12.3461 4.43118 14.7294 8.74869 15.7561L9.80069 16.0009Z" fill="url(#paint0_linear_59_17)"/>
<path d="M13.9197 0.6495L12.3888 0.292C9.32718 -0.43217 7.50301 0.163661 6.43051 2.382C6.15551 2.94116 5.93551 3.6195 5.75217 4.39866L4.85384 8.23953C3.95551 12.0711 5.13801 13.9595 8.96048 14.867L10.5005 15.2336C11.0322 15.362 11.5272 15.4445 11.9855 15.4811C14.8455 15.7561 16.3672 14.4178 17.1372 11.1086L18.0355 7.277C18.9338 3.44533 17.7605 1.54783 13.9197 0.6495ZM12.1963 9.92613C12.1138 10.2378 11.8388 10.4395 11.5272 10.4395C11.4722 10.4395 11.4172 10.4303 11.353 10.4211L8.68549 9.74283C8.31879 9.65113 8.09884 9.27533 8.19049 8.90863C8.28219 8.54203 8.65799 8.32203 9.02469 8.41363L11.6922 9.09203C12.068 9.18363 12.288 9.55953 12.1963 9.92613ZM14.8822 6.82783C14.7997 7.1395 14.5247 7.34116 14.213 7.34116C14.158 7.34116 14.103 7.332 14.0388 7.32283L9.59298 6.19533C9.22628 6.10366 9.00628 5.72783 9.09798 5.36116C9.18968 4.9945 9.56548 4.7745 9.93218 4.86616L14.378 5.99366C14.7538 6.07616 14.9738 6.452 14.8822 6.82783Z" fill="url(#paint1_linear_59_17)"/>
<defs>
<linearGradient id="paint0_linear_59_17" x1="-2.3052e-06" y1="10.0463" x2="9.73059" y2="10.0463" gradientUnits="userSpaceOnUse">
<stop stop-color="#4267B2"/>
<stop offset="1" stop-color="#4267B2"/>
</linearGradient>
<linearGradient id="paint1_linear_59_17" x1="4.56836" y1="7.75803" x2="17.1934" y2="7.75803" gradientUnits="userSpaceOnUse">
<stop stop-color="#4267B2"/>
<stop offset="1" stop-color="#4267B2"/>
</linearGradient>
</defs>
</svg>
