<svg width="570" height="560" viewBox="0 0 570 560" fill="none" xmlns="http://www.w3.org/2000/svg">
<path d="M352.46 374.864H568.277V251.071H352.46V374.864ZM569.611 376.197H351.127V249.737H569.611V376.197Z" fill="#E3E3E2"/>
<path d="M524.544 321.395H380.364V317.165H524.544V321.395Z" fill="#F4F4F4"/>
<path d="M534.473 337.543H380.364V332.928H534.473V337.543Z" fill="#F4F4F4"/>
<path d="M534.473 353.488H380.364V348.873H534.473V353.488Z" fill="#F4F4F4"/>
<path d="M430.753 305.247H380.364V294.273H430.753V305.247Z" fill="#F4F4F4"/>
<path d="M568.944 270.536H351.793V250.404H568.944V270.536Z" fill="#E3E3E2"/>
<path d="M552.235 267.528C551.957 267.263 554.756 263.888 558.484 259.991C562.213 256.092 565.46 253.148 565.737 253.413C566.015 253.677 563.217 257.052 559.488 260.951C555.76 264.848 552.512 267.793 552.235 267.528Z" fill="white"/>
<path d="M565.737 267.528C565.46 267.793 562.213 264.848 558.485 260.951C554.755 257.052 551.957 253.677 552.235 253.413C552.512 253.148 555.759 256.092 559.488 259.991C563.217 263.888 566.015 267.263 565.737 267.528Z" fill="white"/>
<path d="M300.728 125.127H83.5765V2.57687e-05H300.728V125.127Z" fill="#E9E9E8"/>
<path d="M256.327 70.9907H112.148V66.7613H256.327V70.9907Z" fill="#F4F4F4"/>
<path d="M266.257 87.1386H112.148V82.524H266.257V87.1386Z" fill="#F4F4F4"/>
<path d="M266.257 103.084H112.148V98.4693H266.257V103.084Z" fill="#F4F4F4"/>
<path d="M162.536 54.8413H112.148V43.8693H162.536V54.8413Z" fill="#F4F4F4"/>
<path d="M300.728 20.1307H83.5765V1.34069e-05H300.728V20.1307Z" fill="#E3E3E2"/>
<path d="M283.275 17.0267C282.997 16.7627 285.795 13.388 289.523 9.49063C293.252 5.59196 296.5 2.64665 296.777 2.91199C297.055 3.17732 294.256 6.55199 290.527 10.4507C286.799 14.3467 283.552 17.292 283.275 17.0267Z" fill="white"/>
<path d="M296.777 17.0267C296.5 17.292 293.252 14.3467 289.524 10.4507C285.793 6.55199 282.997 3.17732 283.275 2.91199C283.552 2.64665 286.797 5.59196 290.527 9.49063C294.256 13.388 297.055 16.7627 296.777 17.0267Z" fill="white"/>
<path d="M1.33333 231.113H217.151V107.32H1.33333V231.113ZM218.484 232.447H0V105.987H218.484V232.447Z" fill="#E3E3E2"/>
<path d="M173.417 177.644H29.2369V173.415H173.417V177.644Z" fill="#F4F4F4"/>
<path d="M183.347 193.792H29.2369V189.179H183.347V193.792Z" fill="#F4F4F4"/>
<path d="M183.347 209.737H29.2369V205.124H183.347V209.737Z" fill="#F4F4F4"/>
<path d="M79.626 161.496H29.2369V150.523H79.626V161.496Z" fill="#F4F4F4"/>
<path d="M217.817 126.785H0.666656V106.653H217.817V126.785Z" fill="#E3E3E2"/>
<path d="M214.228 490.969H470.633V261.427H214.228V490.969Z" fill="#E9E9E8"/>
<path d="M26.2672 397.796H227.118V189.117H26.2672V397.796Z" fill="#F4F4F4"/>
<path d="M227.117 211.855H26.2672V189.117H227.117V211.855Z" fill="#E3E3E2"/>
<path d="M42.8536 200.252C42.8536 202.687 40.9656 204.66 38.636 204.66C36.3073 204.66 34.4193 202.687 34.4193 200.252C34.4193 197.819 36.3073 195.844 38.636 195.844C40.9656 195.844 42.8536 197.819 42.8536 200.252Z" fill="white"/>
<path d="M59.9584 200.252C59.9584 202.687 58.0703 204.66 55.7417 204.66C53.4131 204.66 51.5251 202.687 51.5251 200.252C51.5251 197.819 53.4131 195.844 55.7417 195.844C58.0703 195.844 59.9584 197.819 59.9584 200.252Z" fill="white"/>
<path d="M77.0631 200.252C77.0631 202.687 75.1751 204.66 72.8464 204.66C70.5177 204.66 68.6297 202.687 68.6297 200.252C68.6297 197.819 70.5177 195.844 72.8464 195.844C75.1751 195.844 77.0631 197.819 77.0631 200.252Z" fill="white"/>
<path d="M284.533 301.189H540.939V45.6413H284.533V301.189Z" fill="#F4F4F4"/>
<path d="M540.939 75.5733H284.533V45.6413H540.939V75.5733Z" fill="#E3E3E2"/>
<path d="M306.369 60.3C306.369 63.5053 303.884 66.104 300.817 66.104C297.752 66.104 295.267 63.5053 295.267 60.3C295.267 57.0947 297.752 54.4973 300.817 54.4973C303.884 54.4973 306.369 57.0947 306.369 60.3Z" fill="white"/>
<path d="M327.263 56.3746C329.528 58.6413 329.608 62.236 327.44 64.404C325.272 66.572 321.676 66.492 319.411 64.2267C317.145 61.96 317.064 58.3653 319.232 56.196C321.4 54.0293 324.996 54.1093 327.263 56.3746Z" fill="white"/>
<path d="M351.407 60.3C351.407 63.5053 348.921 66.104 345.855 66.104C342.788 66.104 340.304 63.5053 340.304 60.3C340.304 57.0947 342.788 54.4973 345.855 54.4973C348.921 54.4973 351.407 57.0947 351.407 60.3Z" fill="white"/>
<path d="M485.549 558.769C485.549 558.961 392.963 559.117 278.78 559.117C164.556 559.117 71.9912 558.961 71.9912 558.769C71.9912 558.579 164.556 558.421 278.78 558.421C392.963 558.421 485.549 558.579 485.549 558.769Z" fill="#1D2A30"/>
<path d="M395.332 395.544C374.733 381.153 370.06 354.443 370.876 330.432C371.011 326.424 370.571 322.199 372.477 318.683C374.385 315.167 378.833 312.763 382.421 314.452C385.397 315.853 386.695 319.315 388.36 322.179C390.575 325.988 393.876 329.14 397.76 331.156C400.312 332.48 403.469 333.291 405.989 331.901C409.445 329.993 409.853 325.217 409.829 321.231C409.781 313.801 409.736 306.371 409.689 298.943C409.665 294.957 409.653 290.887 410.892 287.104C412.132 283.32 414.872 279.807 418.664 278.744C422.456 277.681 427.145 279.868 427.945 283.769C428.279 285.393 427.948 287.079 428.059 288.733C428.169 290.388 428.941 292.219 430.512 292.68C432.104 293.147 433.699 292.017 434.889 290.851C439.004 286.825 441.796 281.64 444.405 276.484C447.015 271.328 449.548 266.049 453.28 261.66C457.013 257.269 462.177 253.791 467.887 253.468C473.596 253.144 479.677 256.668 481.12 262.272C482.567 267.892 479.288 273.593 475.721 278.143C470.428 284.892 464.167 290.861 457.195 295.803C455.939 296.695 454.576 297.657 454.096 299.135C453.229 301.792 455.748 304.431 458.372 305.305C461.343 306.295 464.567 305.985 467.675 306.352C470.783 306.717 474.151 308.088 475.327 311.027C476.959 315.1 473.552 319.371 470.199 322.168C463.485 327.769 455.819 332.195 447.64 335.191C444.708 336.263 441.621 337.204 439.257 339.264C436.892 341.325 435.465 344.908 436.893 347.715C438.324 350.527 441.991 351.424 445.061 350.855C448.132 350.285 450.883 348.617 453.809 347.513C459.287 345.445 466.361 345.823 469.871 350.557C472.176 353.669 472.38 358.003 471.213 361.712C470.048 365.421 467.681 368.617 465.169 371.564C456.389 381.864 445.151 390.157 432.443 394.564C419.735 398.971 407.96 400.163 395.332 395.544Z" fill="#FA8714"/>
<path d="M475.361 256.805C475.371 256.815 475.239 256.943 474.975 257.184C474.68 257.447 474.288 257.795 473.791 258.239C472.747 259.161 471.208 260.524 469.273 262.331C465.399 265.931 459.957 271.351 454.048 278.764C451.081 282.459 448 286.641 444.772 291.192C441.552 295.751 438.141 300.641 434.749 305.919C431.357 311.195 427.961 316.848 424.915 322.956C423.379 326.003 422.008 329.192 420.611 332.443C419.22 335.693 417.809 338.991 416.381 342.328C410.717 355.696 405.735 368.617 402.175 380.688C398.595 392.748 396.464 403.924 395.532 413.396C394.576 422.871 394.772 430.604 395.159 435.911C395.367 438.564 395.569 440.624 395.757 442.013C395.833 442.68 395.895 443.204 395.941 443.598C395.979 443.956 395.992 444.14 395.98 444.143C395.967 444.144 395.929 443.965 395.867 443.609C395.804 443.219 395.719 442.696 395.611 442.033C395.376 440.648 395.125 438.591 394.873 435.933C394.399 430.623 394.123 422.863 395.016 413.345C395.887 403.833 397.972 392.6 401.529 380.492C405.063 368.375 410.039 355.415 415.708 342.036C417.137 338.697 418.551 335.399 419.943 332.147C421.339 328.905 422.724 325.689 424.275 322.628C427.347 316.489 430.769 310.823 434.185 305.545C437.601 300.264 441.035 295.377 444.277 290.832C447.533 286.291 450.647 282.116 453.647 278.432C459.625 271.037 465.144 265.656 469.083 262.116C471.049 260.339 472.619 259.011 473.696 258.125C474.215 257.704 474.62 257.373 474.927 257.125C475.207 256.904 475.353 256.795 475.361 256.805Z" fill="#1D2A30"/>
<path d="M424.484 322.599C424.435 322.607 424.299 322.001 424.095 320.899C423.885 319.797 423.635 318.195 423.355 316.208C422.791 312.24 422.2 306.732 421.571 300.657C420.943 294.58 420.275 289.096 419.652 285.147C419.345 283.172 419.083 281.575 418.887 280.473C418.696 279.371 418.613 278.755 418.664 278.744C418.713 278.732 418.889 279.327 419.165 280.415C419.447 281.5 419.789 283.087 420.161 285.057C420.917 288.999 421.669 294.495 422.299 300.579C422.904 306.575 423.451 311.999 423.869 316.143C424.069 318.015 424.24 319.591 424.377 320.857C424.493 321.971 424.535 322.591 424.484 322.599Z" fill="#1D2A30"/>
<path d="M475.733 313.021C475.735 313.072 475.005 313.156 473.689 313.265C472.375 313.383 470.471 313.541 468.125 313.813C463.432 314.32 456.972 315.248 449.889 316.583C442.808 317.929 436.451 319.421 431.885 320.635C429.596 321.224 427.757 321.752 426.484 322.108C425.212 322.471 424.5 322.647 424.484 322.599C424.468 322.549 425.151 322.28 426.399 321.832C427.649 321.391 429.471 320.785 431.748 320.128C436.292 318.783 442.653 317.204 449.756 315.852C456.859 314.515 463.355 313.665 468.076 313.292C470.436 313.085 472.351 313.005 473.675 312.977C475 312.957 475.731 312.969 475.733 313.021Z" fill="#1D2A30"/>
<path d="M402.16 379.549C402.136 379.56 402.016 379.345 401.808 378.924C401.571 378.423 401.281 377.811 400.932 377.071C400.177 375.457 399.148 373.093 397.913 370.157C395.441 364.287 392.28 356.069 388.916 346.955C385.549 337.836 382.469 329.6 380.123 323.687C378.973 320.811 378.027 318.447 377.324 316.689C377.023 315.925 376.776 315.297 376.572 314.78C376.408 314.341 376.333 314.105 376.356 314.093C376.38 314.085 376.5 314.3 376.708 314.72C376.944 315.221 377.233 315.832 377.584 316.573C378.337 318.187 379.368 320.549 380.603 323.485C383.075 329.357 386.235 337.575 389.601 346.693C392.967 355.808 396.047 364.043 398.392 369.959C399.544 372.832 400.489 375.197 401.192 376.955C401.493 377.717 401.74 378.348 401.944 378.863C402.108 379.304 402.183 379.539 402.16 379.549Z" fill="#1D2A30"/>
<path d="M470.263 357.6C470.269 357.625 470.036 357.72 469.587 357.879C469.055 358.057 468.4 358.276 467.609 358.541C465.781 359.135 463.316 359.933 460.316 360.905C454.159 362.903 445.685 365.757 436.328 368.925C426.967 372.096 418.459 374.876 412.259 376.747C409.159 377.683 406.643 378.415 404.893 378.884C404.085 379.096 403.419 379.271 402.877 379.415C402.413 379.528 402.167 379.575 402.16 379.549C402.153 379.525 402.387 379.429 402.835 379.269C403.367 379.092 404.02 378.873 404.813 378.608C406.64 378.016 409.105 377.217 412.105 376.245C418.263 374.249 426.736 371.392 436.097 368.223C445.455 365.053 453.961 362.273 460.163 360.404C463.263 359.468 465.777 358.736 467.528 358.265C468.336 358.053 469.001 357.877 469.545 357.736C470.008 357.623 470.255 357.576 470.263 357.6Z" fill="#1D2A30"/>
<path d="M428.251 95.3493L433.132 110.26C433.337 110.891 432.977 111.533 432.368 111.753L425.539 114.196C425.016 114.381 424.347 114.105 424.141 113.475L419.26 98.5654C413.971 98.3414 409.06 94.836 407.223 89.2267C404.863 82.0147 408.556 74.1293 415.477 71.6533C422.395 69.1787 429.933 73.0467 432.295 80.2587C434.131 85.868 432.305 91.784 428.251 95.3493ZM388.239 43.5453C385.271 34.476 389.904 24.572 398.581 21.4693C407.251 18.3667 416.723 23.224 419.692 32.2947L422.629 41.2667L391.176 52.5187L388.239 43.5453ZM442.48 34.1654L435.609 36.624L432.671 27.6507C427.253 11.1027 409.959 2.24803 394.141 7.90536C378.315 13.5667 369.853 31.6347 375.272 48.184L378.209 57.1573L371.316 59.6227C365.955 61.54 363.055 67.7187 364.889 73.328L384.004 131.715C385.869 137.409 391.787 140.447 397.147 138.529L468.312 113.072C473.759 111.124 476.663 104.931 474.797 99.2373L455.683 40.8493C453.847 35.24 447.927 32.2174 442.48 34.1654Z" fill="#FA8714"/>
<path d="M435.309 36.4627C435.375 36.644 422.576 41.4347 406.725 47.164C390.872 52.8947 377.969 57.3934 377.904 57.212C377.839 57.032 390.635 52.2414 406.491 46.5107C422.339 40.7814 435.244 36.2827 435.309 36.4627Z" fill="#1D2A30"/>
<path d="M450.421 38.92C450.433 38.916 450.485 39.0346 450.575 39.2693C450.676 39.5413 450.804 39.8853 450.963 40.3133C451.305 41.2866 451.781 42.6387 452.388 44.356C453.612 47.924 455.356 53.004 457.503 59.26C459.644 65.576 462.185 73.072 465.005 81.3933C466.399 85.5707 467.921 89.9107 469.381 94.4933C470.056 96.7973 470.615 99.26 470.381 101.811C470.263 103.077 469.919 104.351 469.301 105.501C468.673 106.645 467.797 107.652 466.781 108.472C464.732 110.111 462.333 111.067 460.015 111.927C457.688 112.763 455.393 113.587 453.141 114.395C448.635 116.008 444.288 117.564 440.145 119.047C431.868 121.993 424.409 124.649 418.127 126.887C411.888 129.081 406.823 130.863 403.263 132.115C401.541 132.705 400.184 133.169 399.211 133.503C398.776 133.644 398.427 133.757 398.151 133.848C397.909 133.921 397.784 133.955 397.78 133.943C397.777 133.932 397.893 133.877 398.125 133.781C398.396 133.675 398.737 133.54 399.163 133.372C400.127 133.008 401.468 132.503 403.171 131.86C406.713 130.559 411.753 128.707 417.961 126.424C424.228 124.148 431.669 121.444 439.929 118.445C444.067 116.949 448.409 115.381 452.911 113.756C455.163 112.943 457.452 112.116 459.777 111.277C462.076 110.425 464.411 109.481 466.344 107.932C467.303 107.159 468.111 106.225 468.692 105.172C469.26 104.111 469.58 102.936 469.693 101.745C469.919 99.3493 469.389 96.9546 468.728 94.6866C467.292 90.148 465.772 85.768 464.399 81.596C461.632 73.2587 459.139 65.7453 457.037 59.4146C454.979 53.1306 453.305 48.0266 452.131 44.4413C451.577 42.7066 451.143 41.3413 450.831 40.3587C450.697 39.92 450.592 39.5693 450.508 39.2907C450.44 39.0493 450.409 38.924 450.421 38.92Z" fill="#1D2A30"/>
<path d="M412.883 20.532C412.847 20.5907 412.173 20.1746 410.864 19.6466C409.551 19.144 407.563 18.56 405.044 18.48C402.541 18.388 399.496 18.7746 396.455 20.1026C393.427 21.4146 390.443 23.744 388.305 26.912C386.127 30.0693 385.173 33.724 385.172 37.0373C385.144 40.3653 385.851 43.3293 386.529 45.7613C387.232 48.196 387.951 50.128 388.424 51.4693C388.903 52.8106 389.161 53.5573 389.113 53.576C389.071 53.592 388.728 52.8813 388.171 51.568C387.62 50.2533 386.831 48.344 386.059 45.9026C385.313 43.464 384.54 40.4627 384.532 37.0333C384.496 33.6227 385.472 29.7906 387.729 26.5226C389.945 23.2373 393.052 20.8413 396.201 19.5146C399.363 18.1746 402.501 17.832 405.067 17.9893C407.649 18.1347 409.667 18.8107 410.969 19.3987C411.615 19.7147 412.109 19.972 412.419 20.1907C412.736 20.396 412.895 20.512 412.883 20.532Z" fill="#1D2A30"/>
<path d="M413.488 72.7067C413.48 72.6893 413.711 72.5747 414.164 72.3693C414.612 72.16 415.3 71.8934 416.221 71.6294C417.133 71.3427 418.304 71.1347 419.685 71.0547C421.063 70.9853 422.685 71.128 424.363 71.7507C427.769 72.9493 430.909 76.432 432.451 81.0453C433.192 83.376 433.259 86.0827 432.512 88.7C431.719 91.3067 430.26 93.808 428.153 95.9093L428.24 95.556C430.011 100.415 431.94 105.704 433.947 111.207L434.068 111.541L433.731 111.655C432.765 111.979 431.727 112.327 430.683 112.676C428.437 113.428 426.223 114.169 424.049 114.899L423.721 115.008L423.612 114.679C421.785 109.151 419.784 103.939 418.332 98.9573L418.619 99.184C415.889 99.0027 413.437 97.856 411.484 96.3627C409.523 94.8547 408.02 92.9827 407.005 91.0133C406.009 89.0373 405.508 86.94 405.593 85.008C405.643 83.076 406.088 81.3293 406.712 79.856C407.955 76.8827 409.809 75.0133 411.181 73.9933C412.58 72.972 413.488 72.7067 413.488 72.7067C413.52 72.7667 412.641 73.1 411.307 74.156C409.999 75.2093 408.231 77.0813 407.068 80.0013C405.907 82.8507 405.403 86.9453 407.48 90.7693C408.476 92.6573 409.944 94.4547 411.841 95.8933C413.731 97.3173 416.088 98.3907 418.655 98.548L418.88 98.5613L418.943 98.7747C420.412 103.721 422.425 108.912 424.268 114.463L423.831 114.244C426.001 113.515 428.217 112.772 430.463 112.019C431.507 111.669 432.544 111.321 433.511 110.997L433.295 111.444C431.301 105.936 429.385 100.641 427.625 95.7787L427.555 95.5813L427.713 95.4253C429.708 93.4533 431.161 91.008 431.927 88.528C432.655 86.0254 432.611 83.4533 431.921 81.208C430.464 76.7293 427.468 73.324 424.219 72.1294C422.613 71.5027 421.044 71.332 419.695 71.368C418.343 71.416 417.187 71.5867 416.276 71.8373C414.444 72.308 413.511 72.764 413.488 72.7067Z" fill="#1D2A30"/>
<path d="M372.28 457.686L239.107 457.069C223.089 456.996 210.163 443.955 210.231 427.937L211.641 94.0653C211.709 78.04 224.759 65.1053 240.785 65.1786L373.96 65.7933C389.977 65.868 402.903 78.9093 402.835 94.9253L401.424 428.799C401.356 444.824 388.307 457.759 372.28 457.686Z" fill="#365462"/>
<path d="M373.771 77.316L347.949 77.1973C344.488 77.1813 341.667 80.104 341.653 83.7227L341.632 88.4066C341.617 92.0266 338.797 94.948 335.335 94.932L285.005 94.6987C281.544 94.684 278.749 91.736 278.764 88.116L278.784 83.432C278.799 79.812 276.004 76.8653 272.541 76.8493L263.46 76.8066L240.861 76.7026C229.637 76.6506 220.499 85.7093 220.451 96.9333L219.073 422.816C219.025 434.035 228.079 443.168 239.296 443.22L372.205 443.833C383.428 443.886 392.567 434.827 392.615 423.603L393.993 97.7187C394.04 86.5013 384.988 77.368 373.771 77.316Z" fill="white"/>
<path d="M355.884 400.361L257.052 399.905C256.028 399.9 255.204 398.787 255.209 397.417L255.319 371.561C255.324 370.192 256.159 369.085 257.183 369.089L356.013 369.547C357.037 369.552 357.863 370.665 357.856 372.035L357.747 397.889C357.741 399.259 356.907 400.365 355.884 400.361Z" fill="#FA8714"/>
<path d="M287.201 386.87C286.639 386.867 286.098 386.774 285.579 386.592C285.068 386.402 284.672 386.162 284.392 385.872L284.708 385.256C284.974 385.517 285.33 385.739 285.777 385.921C286.231 386.097 286.706 386.186 287.204 386.188C287.68 386.19 288.067 386.134 288.363 386.02C288.667 385.899 288.887 385.737 289.025 385.536C289.17 385.335 289.244 385.111 289.245 384.866C289.246 384.57 289.16 384.332 288.988 384.151C288.823 383.969 288.603 383.828 288.329 383.725C288.056 383.616 287.753 383.521 287.422 383.44C287.09 383.359 286.758 383.274 286.427 383.186C286.095 383.091 285.789 382.967 285.509 382.814C285.235 382.661 285.012 382.462 284.84 382.216C284.675 381.962 284.594 381.634 284.595 381.23C284.597 380.855 284.696 380.512 284.892 380.203C285.095 379.886 285.403 379.635 285.815 379.45C286.227 379.257 286.754 379.162 287.396 379.165C287.822 379.167 288.244 379.23 288.662 379.355C289.08 379.472 289.44 379.636 289.742 379.847L289.469 380.484C289.145 380.266 288.799 380.106 288.432 380.003C288.071 379.9 287.722 379.848 287.383 379.846C286.928 379.844 286.553 379.904 286.256 380.025C285.96 380.147 285.739 380.311 285.594 380.52C285.456 380.721 285.387 380.952 285.385 381.212C285.384 381.508 285.466 381.746 285.631 381.927C285.804 382.108 286.027 382.25 286.301 382.352C286.582 382.455 286.888 382.546 287.219 382.627C287.551 382.708 287.879 382.796 288.203 382.891C288.535 382.987 288.837 383.111 289.111 383.264C289.391 383.409 289.614 383.605 289.779 383.851C289.951 384.097 290.037 384.419 290.035 384.816C290.033 385.184 289.931 385.526 289.727 385.842C289.524 386.152 289.213 386.403 288.794 386.596C288.381 386.781 287.851 386.873 287.201 386.87Z" fill="#EBEBE4"/>
<path d="M291.698 386.826L291.73 379.25L292.53 379.254L292.498 386.83L291.698 386.826ZM294.963 386.841L294.995 379.266L295.656 379.269L300.855 385.873L300.509 385.871L300.537 379.291L301.327 379.295L301.295 386.871L300.634 386.868L295.446 380.263L295.792 380.265L295.764 386.845L294.963 386.841ZM307.09 386.962C306.512 386.96 305.979 386.863 305.489 386.674C305.006 386.477 304.585 386.204 304.226 385.856C303.874 385.508 303.598 385.099 303.398 384.629C303.205 384.159 303.11 383.647 303.112 383.091C303.115 382.536 303.214 382.024 303.411 381.556C303.615 381.088 303.898 380.681 304.26 380.337C304.623 379.992 305.046 379.727 305.53 379.542C306.021 379.349 306.556 379.254 307.133 379.257C307.71 379.259 308.236 379.352 308.712 379.535C309.195 379.717 309.605 379.993 309.942 380.363L309.442 380.869C309.126 380.55 308.777 380.321 308.395 380.182C308.013 380.044 307.603 379.973 307.162 379.971C306.693 379.969 306.26 380.046 305.863 380.203C305.472 380.353 305.129 380.571 304.832 380.859C304.542 381.139 304.313 381.47 304.146 381.851C303.985 382.226 303.904 382.64 303.902 383.095C303.9 383.542 303.978 383.957 304.135 384.34C304.3 384.724 304.525 385.06 304.813 385.35C305.107 385.633 305.449 385.854 305.838 386.015C306.234 386.168 306.663 386.246 307.125 386.248C307.558 386.25 307.966 386.187 308.349 386.059C308.739 385.931 309.097 385.713 309.423 385.404L309.875 386.012C309.513 386.328 309.09 386.568 308.606 386.731C308.122 386.888 307.616 386.965 307.09 386.962ZM309.107 385.911L309.119 383.119L309.887 383.122L309.875 386.012L309.107 385.911Z" fill="#EBEBE4"/>
<path d="M316.989 387.007C316.022 387.002 315.262 386.721 314.709 386.163C314.156 385.605 313.881 384.781 313.886 383.692L313.904 379.352L314.705 379.355L314.687 383.663C314.683 384.558 314.882 385.219 315.285 385.646C315.687 386.074 316.256 386.289 316.992 386.293C317.735 386.296 318.31 386.086 318.715 385.662C319.121 385.238 319.326 384.579 319.33 383.684L319.348 379.377L320.127 379.38L320.109 383.72C320.104 384.81 319.823 385.631 319.265 386.184C318.714 386.737 317.956 387.011 316.989 387.007ZM322.509 386.967L322.541 379.392L325.376 379.405C326.018 379.408 326.57 379.515 327.031 379.726C327.492 379.93 327.844 380.228 328.088 380.619C328.339 381.002 328.463 381.468 328.46 382.016C328.458 382.55 328.33 383.012 328.076 383.4C327.829 383.781 327.474 384.075 327.011 384.283C326.549 384.49 325.996 384.592 325.354 384.589L322.962 384.578L323.321 384.201L323.31 386.971L322.509 386.967ZM323.321 384.266L322.965 383.874L325.336 383.885C326.093 383.889 326.667 383.729 327.058 383.406C327.457 383.076 327.657 382.612 327.66 382.013C327.662 381.407 327.466 380.937 327.07 380.603C326.682 380.269 326.109 380.101 325.352 380.097L322.981 380.086L323.34 379.709L323.321 384.266Z" fill="#EBEBE4"/>
<path d="M276.712 179.38L242.424 179.221L242.451 172.929L276.739 173.088L276.712 179.38Z" fill="#FA8714"/>
<path d="M276.712 179.38L242.424 179.221L242.451 172.929L276.739 173.088L276.712 179.38Z" fill="#FA8714"/>
<path d="M377.299 211.696C377.293 211.669 377.585 211.712 378.081 211.512C378.549 211.331 379.288 210.763 379.373 209.719C379.369 207.592 379.363 204.501 379.355 200.532C379.355 198.535 379.353 196.316 379.352 193.889C379.353 193.283 379.353 192.663 379.353 192.029C379.371 191.383 379.369 190.781 378.98 190.283C378.629 189.789 378.029 189.473 377.403 189.471C376.72 189.469 376.023 189.468 375.315 189.467C369.641 189.456 363.187 189.443 356.056 189.429C327.492 189.323 288.072 189.177 244.535 189.016C243.96 189.011 243.399 189.292 243.065 189.759C242.695 190.229 242.711 190.787 242.72 191.501C242.713 192.855 242.708 194.203 242.701 195.548C242.691 198.236 242.679 200.908 242.667 203.559C242.661 204.885 242.655 206.205 242.648 207.521C242.669 208.152 242.587 208.907 242.704 209.396C242.836 209.932 243.241 210.385 243.745 210.599C244.007 210.705 244.252 210.743 244.569 210.74L245.545 210.745L247.492 210.753C248.787 210.76 250.076 210.767 251.36 210.773C261.628 210.828 271.532 210.881 280.969 210.931C299.835 211.045 316.827 211.149 331.107 211.236C345.357 211.349 356.9 211.44 364.905 211.503C368.876 211.549 371.968 211.585 374.095 211.611C375.127 211.631 375.92 211.645 376.484 211.656C377.023 211.671 377.299 211.696 377.299 211.696C377.299 211.696 377.023 211.719 376.484 211.727C375.92 211.733 375.127 211.741 374.095 211.751C371.967 211.756 368.875 211.764 364.904 211.773C356.897 211.763 345.356 211.747 331.104 211.728C316.825 211.683 299.833 211.629 280.967 211.571C271.529 211.533 261.625 211.495 251.357 211.453C250.073 211.448 248.784 211.444 247.489 211.437L245.543 211.429L244.567 211.425C244.233 211.432 243.82 211.38 243.479 211.231C242.78 210.937 242.224 210.312 242.039 209.571C241.933 209.195 241.957 208.812 241.956 208.504L241.96 207.519C241.965 206.203 241.971 204.881 241.976 203.556C241.987 200.904 241.997 198.233 242.008 195.545C242.013 194.2 242.02 192.852 242.025 191.499C242.035 191.152 242.005 190.848 242.059 190.433C242.119 190.044 242.269 189.668 242.504 189.351C242.961 188.707 243.748 188.312 244.537 188.321C288.075 188.561 327.495 188.78 356.056 188.939C363.189 188.991 369.644 189.037 375.317 189.079C376.025 189.084 376.723 189.089 377.405 189.096C378.153 189.103 378.863 189.487 379.272 190.073C379.728 190.648 379.724 191.435 379.699 192.031C379.693 192.664 379.689 193.284 379.684 193.891C379.663 196.317 379.643 198.536 379.625 200.533C379.576 204.507 379.539 207.601 379.512 209.729C379.396 210.841 378.599 211.412 378.107 211.579C377.585 211.761 377.299 211.696 377.299 211.696Z" fill="#E3E3E2"/>
<path d="M314.351 203.301L251.627 203.011L251.652 197.131L314.376 197.42L314.351 203.301Z" fill="#FA8714"/>
<path d="M314.351 203.301L296.055 203.216C297.087 201.623 298.285 200.02 298.969 199.195C299.536 198.512 299.856 197.879 299.965 197.353L314.376 197.42L314.351 203.301ZM291.707 203.196L285.576 203.168C284.984 200.608 283.884 198.821 283.12 198.428C282.949 198.34 282.776 198.3 282.608 198.3C281.749 198.3 281.037 199.341 281.523 200.311C281.856 200.976 282.101 202.08 282.276 203.152L251.627 203.011L251.652 197.131L296.949 197.34C295.189 199.06 292.783 201.852 291.707 203.196Z" fill="#FA8714"/>
<path d="M276.469 236.797L242.181 236.639L242.208 230.348L276.496 230.505L276.469 236.797Z" fill="#FA8714"/>
<path d="M256.457 236.705L242.181 236.639L242.208 230.348L262.992 230.444C260.696 232.644 258.452 234.795 256.457 236.705Z" fill="#FA8714"/>
<path d="M376.419 269.111C376.416 269.087 376.699 269.112 377.209 268.961C377.693 268.803 378.473 268.403 378.897 267.451C379.125 266.981 379.149 266.412 379.128 265.76C379.125 265.112 379.123 264.407 379.12 263.641C379.117 262.107 379.113 260.341 379.111 258.356C379.111 256.365 379.109 254.155 379.109 251.737C379.109 251.132 379.109 250.515 379.109 249.884C379.137 249.247 379.06 248.656 378.72 248.124C378.399 247.601 377.879 247.187 377.271 247.001C376.673 246.812 375.96 246.915 375.256 246.885C369.603 246.875 363.169 246.861 356.061 246.848C327.599 246.743 288.316 246.597 244.929 246.436C243.723 246.407 242.611 247.389 242.495 248.583C242.455 249.851 242.473 251.252 242.46 252.575C242.448 255.253 242.437 257.916 242.425 260.557C242.42 261.879 242.413 263.195 242.408 264.507C242.429 265.161 242.336 265.845 242.492 266.368C242.643 266.919 242.995 267.412 243.465 267.735C243.953 268.064 244.483 268.185 245.123 268.161L247.063 268.171C248.353 268.177 249.637 268.184 250.917 268.191C261.149 268.245 271.02 268.297 280.424 268.347C299.224 268.461 316.157 268.565 330.387 268.652C344.589 268.764 356.091 268.856 364.068 268.917C368.025 268.965 371.107 269.001 373.225 269.025C374.255 269.045 375.045 269.06 375.608 269.071C376.144 269.085 376.419 269.111 376.419 269.111C376.419 269.111 376.144 269.133 375.607 269.141C375.045 269.148 374.253 269.156 373.224 269.165C371.107 269.171 368.024 269.179 364.067 269.189C356.089 269.177 344.587 269.163 330.384 269.143C316.155 269.099 299.223 269.045 280.42 268.987C271.017 268.949 261.147 268.911 250.913 268.871C249.635 268.865 248.349 268.86 247.059 268.855L245.12 268.847C244.468 268.881 243.667 268.723 243.077 268.303C242.473 267.889 242.023 267.259 241.829 266.549C241.631 265.803 241.749 265.153 241.72 264.503C241.724 263.192 241.729 261.876 241.735 260.555C241.745 257.912 241.756 255.251 241.767 252.571C241.783 251.215 241.756 249.925 241.805 248.501C241.953 246.965 243.385 245.703 244.932 245.743C288.319 245.981 327.601 246.199 356.064 246.357C363.172 246.409 369.604 246.456 375.257 246.497C375.955 246.535 376.66 246.421 377.381 246.643C378.077 246.861 378.667 247.337 379.027 247.936C379.409 248.521 379.492 249.269 379.453 249.885C379.448 250.516 379.444 251.133 379.44 251.739C379.419 254.156 379.397 256.367 379.381 258.357C379.36 260.343 379.341 262.108 379.327 263.643C379.317 264.407 379.309 265.113 379.301 265.761C379.313 266.396 379.276 267.028 379.025 267.508C378.556 268.499 377.732 268.889 377.228 269.029C376.699 269.161 376.419 269.111 376.419 269.111Z" fill="#E3E3E2"/>
<path d="M276.217 296.681L241.928 296.524L241.955 290.232L276.244 290.389L276.217 296.681Z" fill="#FA8714"/>
<path d="M276.217 296.681L241.928 296.524L241.955 290.232L276.244 290.389L276.217 296.681Z" fill="#FA8714"/>
<path d="M376.165 328.995C376.164 328.972 376.445 328.996 376.955 328.847C377.441 328.688 378.22 328.287 378.644 327.335C378.872 326.865 378.895 326.296 378.875 325.644C378.872 324.996 378.869 324.291 378.867 323.527C378.864 321.991 378.861 320.225 378.857 318.241C378.856 316.251 378.856 314.039 378.855 311.621C378.855 311.017 378.856 310.399 378.856 309.767C378.884 309.131 378.808 308.54 378.467 308.008C378.145 307.485 377.625 307.071 377.017 306.884C376.421 306.696 375.708 306.799 375.001 306.769C369.349 306.757 362.917 306.747 355.809 306.732C327.344 306.627 288.063 306.48 244.676 306.32C243.471 306.291 242.357 307.273 242.241 308.467C242.201 309.735 242.221 311.136 242.208 312.459C242.196 315.137 242.184 317.8 242.172 320.441C242.167 321.763 242.161 323.079 242.155 324.391C242.177 325.044 242.084 325.728 242.239 326.251C242.389 326.804 242.741 327.296 243.212 327.619C243.7 327.948 244.229 328.071 244.869 328.045L246.809 328.055C248.1 328.061 249.384 328.068 250.664 328.075C260.896 328.129 270.767 328.181 280.169 328.231C298.971 328.347 315.903 328.449 330.132 328.536C344.335 328.648 355.836 328.74 363.815 328.803C367.772 328.849 370.853 328.885 372.972 328.911C374 328.929 374.792 328.944 375.353 328.956C375.889 328.971 376.165 328.995 376.165 328.995C376.165 328.995 375.889 329.017 375.353 329.027C374.791 329.031 374 329.039 372.972 329.049C370.852 329.055 367.771 329.063 363.813 329.073C355.835 329.061 344.333 329.047 330.129 329.028C315.9 328.983 298.968 328.929 280.167 328.871C270.764 328.833 260.893 328.796 250.66 328.755C249.381 328.751 248.096 328.744 246.805 328.739L244.867 328.731C244.215 328.765 243.413 328.607 242.824 328.187C242.221 327.772 241.769 327.141 241.575 326.433C241.377 325.687 241.496 325.036 241.467 324.387C241.472 323.076 241.476 321.759 241.481 320.439C241.492 317.796 241.503 315.135 241.513 312.455C241.529 311.097 241.503 309.809 241.553 308.384C241.7 306.849 243.132 305.587 244.68 305.627C288.065 305.865 327.347 306.084 355.812 306.241C362.919 306.293 369.351 306.34 375.004 306.381C375.703 306.417 376.407 306.307 377.128 306.528C377.824 306.745 378.412 307.223 378.775 307.82C379.157 308.407 379.239 309.153 379.201 309.769C379.196 310.4 379.191 311.019 379.185 311.623C379.165 314.04 379.145 316.251 379.128 318.241C379.108 320.227 379.089 321.992 379.073 323.528C379.064 324.291 379.056 324.997 379.048 325.644C379.059 326.281 379.021 326.912 378.772 327.393C378.303 328.383 377.479 328.773 376.976 328.915C376.445 329.044 376.165 328.995 376.165 328.995Z" fill="#E3E3E2"/>
<path d="M314.109 260.719L251.384 260.429L251.409 254.548L314.133 254.837L314.109 260.719Z" fill="#FA8714"/>
<path d="M314.109 260.719L261.183 260.475C262.808 258.875 264.701 256.869 266.743 254.619L314.133 254.837L314.109 260.719Z" fill="#FA8714"/>
<path d="M257.108 318.111C257.1 319.725 255.867 321.028 254.353 321.023C252.839 321.015 251.616 319.699 251.623 318.084C251.631 316.471 252.864 315.165 254.377 315.173C255.892 315.18 257.113 316.495 257.108 318.111Z" fill="#FA8714"/>
<path d="M265.605 318.149C265.597 319.764 264.364 321.068 262.851 321.061C261.336 321.055 260.113 319.74 260.12 318.124C260.127 316.509 261.36 315.205 262.875 315.212C264.389 315.219 265.611 316.533 265.605 318.149Z" fill="#FA8714"/>
<path d="M274.101 318.189C274.095 319.804 272.861 321.108 271.347 321.1C269.833 321.093 268.611 319.779 268.617 318.163C268.624 316.548 269.857 315.245 271.372 315.251C272.885 315.257 274.109 316.573 274.101 318.189Z" fill="#FA8714"/>
<path d="M282.599 318.228C282.592 319.843 281.359 321.147 279.844 321.139C278.331 321.133 277.108 319.817 277.115 318.201C277.121 316.587 278.355 315.284 279.869 315.291C281.384 315.299 282.607 316.613 282.599 318.228Z" fill="#FA8714"/>
<path d="M291.096 318.267C291.089 319.883 289.856 321.187 288.341 321.179C286.828 321.172 285.605 319.857 285.611 318.243C285.619 316.627 286.852 315.323 288.367 315.329C289.881 315.337 291.103 316.652 291.096 318.267Z" fill="#FA8714"/>
<path d="M299.593 318.307C299.587 319.921 298.353 321.225 296.837 321.217C295.324 321.211 294.103 319.896 294.109 318.281C294.115 316.665 295.348 315.361 296.863 315.368C298.379 315.376 299.6 316.692 299.593 318.307Z" fill="#FA8714"/>
<path d="M308.091 318.345C308.083 319.961 306.849 321.264 305.335 321.257C303.821 321.251 302.6 319.935 302.607 318.32C302.612 316.704 303.845 315.401 305.36 315.409C306.875 315.415 308.097 316.731 308.091 318.345Z" fill="#FA8714"/>
<path d="M316.587 318.384C316.58 320 315.347 321.304 313.832 321.297C312.319 321.289 311.096 319.975 311.104 318.36C311.111 316.745 312.343 315.44 313.857 315.448C315.372 315.455 316.595 316.769 316.587 318.384Z" fill="#FA8714"/>
<path d="M325.084 318.424C325.077 320.039 323.844 321.343 322.331 321.336C320.816 321.329 319.593 320.015 319.6 318.399C319.608 316.784 320.84 315.48 322.355 315.487C323.869 315.493 325.092 316.808 325.084 318.424Z" fill="#FA8714"/>
<path d="M254.364 321.023C254.36 321.023 254.357 321.023 254.353 321.023C252.844 321.015 251.627 319.709 251.623 318.104C251.623 318.097 251.623 318.091 251.623 318.084C251.631 316.475 252.856 315.173 254.364 315.173C254.368 315.173 254.373 315.173 254.377 315.173C255.887 315.18 257.104 316.484 257.108 318.092C257.108 318.099 257.108 318.104 257.108 318.111C257.1 319.721 255.873 321.023 254.364 321.023Z" fill="#FA8714"/>
<path d="M262.861 321.061C262.857 321.061 262.855 321.061 262.851 321.061C261.341 321.055 260.124 319.749 260.12 318.143C260.12 318.136 260.12 318.129 260.12 318.124C260.127 316.513 261.355 315.212 262.864 315.212C262.868 315.212 262.871 315.212 262.875 315.212C264.384 315.219 265.601 316.524 265.605 318.131C265.605 318.137 265.605 318.144 265.605 318.149C265.597 319.76 264.371 321.061 262.861 321.061Z" fill="#FA8714"/>
<path d="M271.36 321.1C271.356 321.1 271.352 321.1 271.347 321.1C269.839 321.093 268.62 319.789 268.617 318.181C268.617 318.176 268.617 318.169 268.617 318.163C268.624 316.552 269.852 315.251 271.36 315.251C271.364 315.251 271.368 315.251 271.372 315.251C272.88 315.257 274.099 316.563 274.101 318.169C274.101 318.176 274.101 318.183 274.101 318.189C274.095 319.799 272.868 321.1 271.36 321.1Z" fill="#FA8714"/>
<path d="M279.857 321.139C279.853 321.139 279.849 321.139 279.844 321.139C278.336 321.133 277.117 319.828 277.115 318.221C277.115 318.215 277.115 318.208 277.115 318.201C277.121 316.592 278.349 315.291 279.857 315.291C279.861 315.291 279.865 315.291 279.869 315.291C281.377 315.299 282.596 316.603 282.599 318.209C282.599 318.215 282.599 318.221 282.599 318.228C282.592 319.837 281.367 321.139 279.857 321.139Z" fill="#FA8714"/>
<path d="M288.356 321.179C288.351 321.179 288.347 321.179 288.341 321.179C286.833 321.172 285.615 319.867 285.611 318.261C285.611 318.255 285.611 318.248 285.611 318.243C285.619 316.631 286.847 315.329 288.355 315.329C288.359 315.329 288.363 315.329 288.367 315.329C289.875 315.337 291.093 316.643 291.096 318.248C291.096 318.255 291.096 318.26 291.096 318.267C291.089 319.877 289.864 321.179 288.356 321.179Z" fill="#FA8714"/>
<path d="M296.852 321.217C296.847 321.217 296.843 321.217 296.837 321.217C295.329 321.211 294.112 319.907 294.109 318.3C294.109 318.293 294.109 318.288 294.109 318.281C294.115 316.669 295.343 315.368 296.851 315.368C296.855 315.368 296.859 315.368 296.863 315.368C298.372 315.376 299.589 316.681 299.593 318.287C299.593 318.293 299.593 318.3 299.593 318.307C299.587 319.917 298.361 321.217 296.852 321.217Z" fill="#FA8714"/>
<path d="M305.347 321.257C305.343 321.257 305.339 321.257 305.335 321.257C303.827 321.251 302.609 319.945 302.607 318.339C302.607 318.333 302.607 318.327 302.607 318.32C302.612 316.709 303.839 315.409 305.347 315.409C305.351 315.409 305.356 315.409 305.36 315.409C306.868 315.415 308.088 316.72 308.091 318.327C308.091 318.332 308.091 318.339 308.091 318.345C308.083 319.957 306.856 321.257 305.347 321.257Z" fill="#FA8714"/>
<path d="M313.844 321.297C313.84 321.297 313.836 321.297 313.832 321.297C312.324 321.289 311.105 319.985 311.104 318.379C311.104 318.372 311.104 318.365 311.104 318.36C311.111 316.749 312.336 315.448 313.844 315.448C313.848 315.448 313.853 315.448 313.857 315.448C315.365 315.455 316.585 316.759 316.587 318.365C316.587 318.372 316.587 318.377 316.587 318.384C316.58 319.996 315.353 321.297 313.844 321.297Z" fill="#FA8714"/>
<path d="M322.341 321.336C322.337 321.336 322.333 321.336 322.331 321.336C320.821 321.329 319.603 320.024 319.6 318.417C319.6 318.411 319.6 318.405 319.6 318.399C319.608 316.788 320.835 315.487 322.344 315.487C322.347 315.487 322.351 315.487 322.355 315.487C323.863 315.493 325.083 316.799 325.084 318.405C325.084 318.412 325.084 318.419 325.084 318.424C325.077 320.035 323.851 321.336 322.341 321.336Z" fill="#FA8714"/>
<path d="M313.016 125.936C314.811 125.183 316.087 123.333 316.097 121.152C316.109 118.296 313.947 115.971 311.269 115.959C308.592 115.945 306.411 118.251 306.399 121.108C306.389 123.308 307.675 125.18 309.489 125.936C302.027 127.06 302.365 135.169 302.365 135.169L320.011 135.252C320.011 135.252 320.413 127.053 313.016 125.936Z" fill="#FA8714"/>
<path d="M320.011 135.252L302.365 135.169C302.365 135.169 302.363 135.115 302.363 135.011C302.363 133.872 302.647 126.967 309.489 125.936C307.683 125.184 306.4 123.323 306.399 121.133C306.399 121.124 306.399 121.116 306.399 121.108C306.411 118.259 308.58 115.959 311.248 115.959C311.255 115.959 311.261 115.959 311.269 115.959C313.943 115.971 316.1 118.287 316.097 121.136C316.097 121.141 316.097 121.147 316.097 121.152C316.087 123.333 314.811 125.183 313.016 125.936C319.691 126.944 320.015 133.717 320.015 135.031C320.015 135.173 320.011 135.252 320.011 135.252Z" fill="#FA8714"/>
<path d="M341.659 148.084L278.735 147.793L278.767 140.271L341.689 140.56L341.659 148.084Z" fill="#FA8714"/>
<path d="M341.659 148.084L278.735 147.793L278.767 140.271L341.689 140.56L341.659 148.084Z" fill="#FA8714"/>
<path d="M110.38 179.497C110.38 179.511 110.169 179.533 109.76 179.567C109.319 179.599 108.718 179.643 107.945 179.699C107.144 179.713 106.17 179.887 105.02 180.089C104.448 180.205 103.816 180.252 103.171 180.443C102.523 180.623 101.834 180.813 101.105 181.016C98.2271 181.924 94.762 183.365 91.2729 185.892C87.7921 188.4 84.3115 191.985 81.5984 196.661C80.1719 198.96 79.1375 201.615 78.2073 204.405C77.4511 207.245 76.7812 210.263 76.7312 213.443C76.5891 215.028 76.7495 216.639 76.8172 218.276C76.8599 219.093 77.0364 219.905 77.1407 220.729C77.2531 221.555 77.374 222.385 77.6084 223.199C78.2833 226.513 79.6328 229.763 81.3412 232.876C84.7557 239.128 90.4943 244.512 97.5812 247.633C101.127 249.197 105.047 250.041 109.033 250.205C113.023 250.457 117.111 249.817 120.987 248.484L122.159 248.055L122.315 247.997L122.454 248.068C128.192 250.981 133.819 253.837 139.271 256.605L138.771 257.032C136.975 251.459 135.235 246.056 133.564 240.871L133.5 240.671L133.648 240.523C137.887 236.279 140.84 231.123 142.477 225.844C144.119 220.549 144.399 215.157 143.757 210.216C143.117 205.264 141.499 200.761 139.34 196.972C137.183 193.172 134.5 190.084 131.747 187.675C128.961 185.281 126.073 183.66 123.486 182.419C120.835 181.309 118.473 180.599 116.508 180.22C115.527 180.053 114.654 179.904 113.893 179.775C113.137 179.723 112.495 179.677 111.963 179.64C111.467 179.601 111.076 179.572 110.781 179.549C110.515 179.525 110.38 179.508 110.38 179.497C110.38 179.488 110.515 179.485 110.782 179.489C111.078 179.497 111.47 179.508 111.969 179.523C112.504 179.544 113.151 179.571 113.911 179.601C114.68 179.716 115.56 179.847 116.552 179.995C118.536 180.341 120.929 181.024 123.62 182.113C126.247 183.336 129.185 184.949 132.025 187.349C134.833 189.765 137.573 192.876 139.785 196.717C141.997 200.548 143.667 205.112 144.337 210.14C145.011 215.156 144.747 220.639 143.092 226.032C141.443 231.411 138.448 236.673 134.135 241.008L134.219 240.66C135.896 245.841 137.644 251.243 139.448 256.813L139.712 257.628L138.948 257.24C133.495 254.475 127.867 251.623 122.128 248.713L122.422 248.727L121.224 249.168C117.263 250.529 113.081 251.183 109.003 250.923C104.93 250.753 100.922 249.885 97.3016 248.283C90.0626 245.087 84.2245 239.579 80.7609 233.203C79.0281 230.027 77.6661 226.713 76.988 223.339C76.7536 222.509 76.6333 221.665 76.5213 220.825C76.4183 219.987 76.2421 219.161 76.2011 218.329C76.138 216.664 75.9828 215.027 76.1328 213.417C76.1979 210.187 76.8901 207.123 77.674 204.244C78.6312 201.415 79.6973 198.727 81.1579 196.403C83.938 191.676 87.4927 188.069 91.0375 185.564C94.5907 183.039 98.1099 181.62 101.025 180.747C101.763 180.555 102.46 180.372 103.117 180.201C103.769 180.02 104.408 179.983 104.984 179.879C106.146 179.696 107.128 179.544 107.934 179.555C108.71 179.528 109.316 179.508 109.759 179.493C110.169 179.484 110.38 179.485 110.38 179.497Z" fill="#FA8714"/>
<path d="M117.983 210.629H115.519L110.141 203.135V198.216C110.141 198.216 106.333 197.981 106.781 204.423C107.229 210.863 106.744 209.223 106.744 209.223C106.744 209.223 98.6568 209.255 97.9849 209.957C97.4964 210.468 97.2755 218.501 97.1907 222.857C97.1484 225.051 98.4932 227.091 100.533 227.609C100.823 227.683 101.116 227.725 101.404 227.725C103.42 227.725 113.727 226.085 113.727 226.085H117.983V210.629Z" fill="#FA8714"/>
<path d="M125.037 209.279L123.521 226.132H119.302V209.617L125.037 209.279Z" fill="#FA8714"/>
<path d="M175.292 552.382V540.975L154.852 540.839L154.683 558.072L155.949 558.167C161.588 558.531 184.643 559.061 188.421 557.892C192.635 556.587 175.292 552.382 175.292 552.382Z" fill="#FA8714"/>
<path d="M188.905 556.821C188.905 557.015 181.259 557.169 171.829 557.169C162.396 557.169 154.751 557.015 154.751 556.821C154.751 556.631 162.396 556.475 171.829 556.475C181.259 556.475 188.905 556.631 188.905 556.821Z" fill="#1D2A30"/>
<path d="M175.652 554.711C175.484 554.623 175.628 554.02 176.067 553.425C176.504 552.829 177.039 552.513 177.172 552.646C177.309 552.785 177.029 553.287 176.627 553.837C176.221 554.386 175.823 554.803 175.652 554.711Z" fill="#1D2A30"/>
<path d="M176.956 555.463C176.779 555.396 176.871 554.72 177.272 554.01C177.672 553.296 178.204 552.868 178.352 552.986C178.505 553.105 178.248 553.688 177.877 554.351C177.503 555.011 177.137 555.532 176.956 555.463Z" fill="#1D2A30"/>
<path d="M160.909 556.77C160.829 556.827 160.525 556.528 160.084 556.025C159.639 555.528 159.056 554.823 158.291 554.229C157.531 553.637 156.696 553.34 156.079 553.263C155.457 553.18 155.049 553.276 155.015 553.176C154.979 553.101 155.359 552.816 156.095 552.772C156.821 552.723 157.847 552.999 158.713 553.679C159.577 554.352 160.128 555.155 160.479 555.736C160.828 556.323 160.987 556.717 160.909 556.77Z" fill="#1D2A30"/>
<path d="M175.713 552.567C175.813 552.728 175.463 553.124 174.88 553.337C174.297 553.553 173.772 553.477 173.745 553.291C173.715 553.099 174.129 552.876 174.64 552.687C175.152 552.499 175.612 552.401 175.713 552.567Z" fill="#1D2A30"/>
<path d="M175.393 551.464C175.412 551.655 174.867 551.819 174.177 551.828C173.487 551.837 172.937 551.689 172.951 551.498C172.964 551.305 173.508 551.143 174.167 551.135C174.825 551.125 175.375 551.273 175.393 551.464Z" fill="#1D2A30"/>
<path d="M225.628 552.382V540.975L205.187 540.839L205.017 557.898L206.284 557.991C211.923 558.356 234.979 559.061 238.757 557.892C242.971 556.587 225.628 552.382 225.628 552.382Z" fill="#FA8714"/>
<path d="M239.24 556.848C239.24 557.039 231.595 557.194 222.164 557.194C212.731 557.194 205.087 557.039 205.087 556.848C205.087 556.656 212.731 556.5 222.164 556.5C231.595 556.5 239.24 556.656 239.24 556.848Z" fill="#1D2A30"/>
<path d="M225.988 554.711C225.82 554.623 225.964 554.02 226.403 553.425C226.84 552.829 227.375 552.513 227.508 552.646C227.645 552.785 227.365 553.287 226.963 553.837C226.556 554.386 226.159 554.803 225.988 554.711Z" fill="#1D2A30"/>
<path d="M227.292 555.463C227.113 555.396 227.205 554.72 227.608 554.01C228.008 553.296 228.54 552.868 228.688 552.986C228.841 553.105 228.584 553.688 228.213 554.351C227.839 555.011 227.472 555.532 227.292 555.463Z" fill="#1D2A30"/>
<path d="M211.245 556.77C211.165 556.827 210.861 556.528 210.419 556.025C209.973 555.528 209.391 554.823 208.625 554.229C207.867 553.637 207.032 553.34 206.415 553.263C205.793 553.18 205.385 553.276 205.351 553.176C205.315 553.101 205.695 552.816 206.431 552.772C207.156 552.723 208.183 552.999 209.049 553.679C209.913 554.352 210.463 555.155 210.815 555.736C211.164 556.323 211.323 556.717 211.245 556.77Z" fill="#1D2A30"/>
<path d="M226.049 552.567C226.149 552.728 225.799 553.124 225.216 553.337C224.632 553.553 224.108 553.477 224.08 553.291C224.051 553.099 224.464 552.876 224.975 552.687C225.488 552.499 225.948 552.401 226.049 552.567Z" fill="#1D2A30"/>
<path d="M225.728 551.464C225.748 551.655 225.203 551.819 224.512 551.828C223.823 551.837 223.273 551.689 223.287 551.498C223.3 551.305 223.844 551.143 224.503 551.135C225.161 551.125 225.711 551.273 225.728 551.464Z" fill="#1D2A30"/>
<path d="M300.929 213.855C300.395 213.305 299.084 213.564 299.084 213.564C299.084 213.564 299.313 212.005 299.071 211.252C298.831 210.499 297.149 210.644 297.149 210.644C297.149 210.644 297.045 209.919 297.192 208.748C297.229 208.455 297.067 208.239 296.801 208.077C296.005 207.596 294.289 207.619 294.289 207.619C293.26 206.884 297.425 201.059 298.969 199.195C300.496 197.353 300.239 195.877 298.861 195.88C297.923 195.881 293.06 201.48 291.576 203.36C290.093 205.239 286.115 210.467 285.98 206.293C285.844 202.121 284.168 198.967 283.12 198.428C282.073 197.891 280.943 199.152 281.523 200.311C281.991 201.247 282.287 203.051 282.455 204.415C282.593 205.54 282.548 206.681 282.301 207.787C281.605 210.913 280.859 212.943 280.507 213.809L280.404 213.751C280.404 213.751 251.301 241.656 249.204 243.648C247.316 245.441 209.5 241.528 201.924 240.725C199.853 240.493 196.787 240.077 194.129 240.193C190.843 240.337 190.259 240.804 186.969 240.848C176.897 240.983 168.504 241.963 162.257 243.02C154.705 244.299 148.515 249.673 146.177 256.968C138.531 280.832 121.232 337.325 118.148 369.064C115.721 373.629 113.007 378.961 111.905 381.961C109.763 387.795 110.282 387.993 111.005 388.128C111.885 388.291 112.825 386.215 113.664 384.14C114.672 381.649 115.538 379.159 115.99 380.537C116.82 383.067 111.787 393.035 113.829 393.327C116.49 393.707 118.611 382.697 118.86 381.779C119.101 380.887 120.444 381.188 120.176 382.005C119.79 383.18 116.037 395.62 118.648 396.019C120.094 396.24 120.25 393.604 120.25 393.604C120.25 393.604 122.903 381.707 124.128 381.936C125.373 382.169 124.051 389.207 123.437 391.548C122.83 393.863 123.685 395.091 124.932 394.509C125.783 394.112 127.832 386.984 128.385 384.655C128.938 382.325 130.34 375.909 132.223 379.635C134.105 383.36 136.955 385.515 138.132 385.561C139.308 385.607 139.803 383.987 138.787 383.18C137.967 382.528 136.937 381.019 136.211 379.852C135.611 378.891 135.171 377.836 134.928 376.729C133.991 372.463 133.999 369.981 133.999 369.981L133.78 368.611C136.767 353.82 145.373 310.427 157.736 282.704L162.827 293.181L165.036 300.936L151.469 334.455L209.353 333.692L200.724 300.44L211.208 265.767C222.555 266.02 251.696 266.443 256.595 264.253C262.7 261.525 294.299 221.693 294.299 221.693H294.297C296.432 219.993 298.603 218.164 300.204 216.568C300.204 216.568 302.087 215.044 300.929 213.855Z" fill="#F9AD95"/>
<path d="M148.948 309.777C150.624 304.045 159.252 275.701 159.252 275.701C159.252 275.701 163.488 298.809 162.375 301.592C161.092 304.8 158.735 308.469 158.735 308.469C148.948 323.373 150.232 330.823 150.232 330.823L209.353 329.02C209.497 320.751 204.603 301.529 203.58 298.467C202.556 295.404 205.951 285.352 205.951 285.352C205.951 285.352 212.632 278.567 212.373 275.075C211.852 268.04 211.208 265.767 211.208 265.767L247.183 267.091L246.052 242.683L194.341 237.508C192.552 242.6 176.268 240.105 176.268 240.105C158.688 240.683 157.624 243.916 150.293 249.592C142.963 255.268 130.89 304.017 130.89 304.017L148.948 309.777Z" fill="#FA8714"/>
<path d="M183.912 304.012C183.911 304.104 182.721 304.183 180.796 304.169C178.872 304.157 176.213 304.037 173.289 303.745C170.365 303.449 167.736 303.036 165.848 302.665C163.959 302.295 162.808 301.981 162.827 301.891C162.844 301.793 164.025 301.936 165.927 302.181C167.828 302.427 170.452 302.76 173.36 303.053C176.265 303.345 178.904 303.541 180.816 303.679C182.728 303.816 183.913 303.912 183.912 304.012Z" fill="#1D2A30"/>
<path d="M187.96 298.983C187.984 299.068 186.765 299.531 184.732 300.084C182.7 300.635 179.845 301.244 176.651 301.625C173.453 302.003 170.536 302.081 168.431 302.02C166.325 301.96 165.031 301.793 165.036 301.705C165.04 301.603 166.339 301.593 168.429 301.529C170.52 301.464 173.403 301.309 176.568 300.935C179.732 300.557 182.571 300.031 184.619 299.605C186.667 299.18 187.931 298.884 187.96 298.983Z" fill="#1D2A30"/>
<path d="M207.847 276.556C207.939 276.575 207.787 277.727 207.443 279.572C207.099 281.416 206.557 283.949 205.876 286.728C205.195 289.508 204.501 292.005 203.953 293.799C203.405 295.592 203.007 296.685 202.916 296.659C202.823 296.633 203.053 295.495 203.479 293.671C203.983 291.589 204.563 289.2 205.201 286.563C205.856 283.929 206.447 281.544 206.963 279.465C207.429 277.651 207.751 276.535 207.847 276.556Z" fill="#1D2A30"/>
<path d="M149.568 306.381C149.519 306.567 145.44 305.616 140.463 304.257C135.481 302.899 131.487 301.648 131.537 301.463C131.588 301.277 135.665 302.229 140.644 303.587C145.623 304.945 149.619 306.196 149.568 306.381Z" fill="#1D2A30"/>
<path d="M211.859 265.455C211.859 265.487 211.311 265.544 210.328 265.447C209.351 265.345 207.92 265.119 206.263 264.476C204.604 263.856 202.719 262.817 200.957 261.247C199.195 259.683 197.621 257.531 196.617 254.997C195.597 252.468 195.263 249.831 195.423 247.481C195.577 245.139 196.197 243.02 197.248 241.535C198.285 240.031 199.663 239.303 200.621 239.051C201.108 238.921 201.499 238.891 201.76 238.897C202.023 238.905 202.159 238.933 202.157 238.955C202.161 239.021 201.605 238.989 200.703 239.308C199.817 239.625 198.572 240.373 197.655 241.808C195.84 244.663 195.333 249.872 197.263 254.74C198.229 257.175 199.716 259.243 201.388 260.773C203.059 262.309 204.856 263.36 206.445 264.021C209.649 265.351 211.883 265.307 211.859 265.455Z" fill="#1D2A30"/>
<path d="M242.939 266.604C242.747 266.604 242.603 261.103 242.616 254.317C242.629 247.529 242.796 242.031 242.987 242.031C243.179 242.031 243.324 247.532 243.309 254.319C243.296 261.104 243.131 266.605 242.939 266.604Z" fill="#1D2A30"/>
<path d="M194.023 238.995C194.168 236.019 194.48 232.657 194.48 232.657C194.48 232.657 201.837 231.845 202.284 224.245C202.731 216.644 202.284 199.117 202.284 199.117L188.884 192.293L174.141 203.925L176.376 241.928L189.94 242.791C192.077 242.927 193.913 241.223 194.023 238.995Z" fill="#F9AD95"/>
<path d="M195.349 218.232C195.371 218.239 195.371 218.375 195.232 218.559C195.096 218.737 194.8 218.941 194.387 218.932C193.532 218.891 192.711 217.947 192.407 216.795C192.255 216.209 192.256 215.616 192.371 215.105C192.461 214.603 192.751 214.097 193.171 213.96C193.371 213.887 193.579 213.893 193.737 213.973C193.892 214.052 193.988 214.171 194.037 214.28C194.137 214.505 194.06 214.643 194.041 214.632C194.009 214.631 194.019 214.505 193.907 214.363C193.803 214.217 193.552 214.085 193.275 214.229C192.992 214.357 192.797 214.719 192.725 215.183C192.643 215.641 192.652 216.168 192.788 216.689C193.055 217.721 193.771 218.565 194.407 218.643C194.723 218.683 194.983 218.561 195.124 218.447C195.269 218.328 195.321 218.22 195.349 218.232Z" fill="#F6865E"/>
<path d="M206.855 195.015C205.829 191.515 202.111 189.777 198.721 188.817C193.565 187.356 187.98 186.709 182.943 188.564C177.905 190.419 171.847 193.681 171.848 199.247C168.876 199.001 167.176 201.608 165.996 204.835C165.299 206.741 164.84 208.864 164.732 210.968L164.683 210.951C164.301 218.236 162.272 228.272 157.549 233.659C154.941 236.633 151.185 238.689 149.667 242.393C148.345 245.613 149.028 249.419 147.779 252.669C146.677 255.539 144.235 257.576 142.485 260.072C138.672 265.508 138.413 273.191 141.215 279.259C144.016 285.327 149.565 289.767 155.727 291.801C161.889 293.836 168.601 293.612 174.872 291.979C179.501 290.773 184.005 288.779 187.695 285.625C191.384 282.473 194.215 278.089 195.057 273.196C195.997 267.751 194.472 262.22 193.351 256.809C189.804 239.696 190.817 238.807 195.293 222.932C195.395 222.652 195.457 222.361 195.535 222.073C195.593 221.863 195.651 221.661 195.711 221.445L195.701 221.441C195.827 220.82 195.909 220.188 195.912 219.543C194.615 220.053 193.049 219.715 192.056 218.709C191.063 217.703 190.692 216.083 191.144 214.719C191.665 213.148 193.105 212.1 194.584 211.477C196.061 210.856 197.653 210.548 199.104 209.857C202.183 208.392 204.317 205.352 205.769 202.167C206.787 199.935 207.547 197.377 206.855 195.015Z" fill="#1D2A30"/>
<path d="M195.875 218.557C195.921 218.537 196.181 219.033 196.577 219.875C196.972 220.717 197.504 221.905 198.093 223.271L198.205 223.529L197.923 223.553C197.477 223.591 197.028 223.629 196.565 223.669C195.636 223.731 194.86 223.841 193.957 223.832C193.815 223.807 193.657 223.676 193.613 223.529C193.565 223.385 193.579 223.264 193.593 223.159C193.632 222.949 193.677 222.795 193.719 222.617L193.955 221.673C194.249 220.521 194.46 219.816 194.516 219.828C194.572 219.841 194.463 220.571 194.241 221.737L194.056 222.692C193.988 223.013 193.871 223.496 194.044 223.459C194.708 223.429 195.655 223.319 196.531 223.255C196.995 223.217 197.444 223.183 197.889 223.147L197.719 223.429C197.147 222.057 196.664 220.848 196.333 219.979C196.004 219.109 195.829 218.577 195.875 218.557Z" fill="#FA8714"/>
<path d="M150.232 330.823L209.353 329.02L235.065 429.472L230.331 544.696H199.039L202.916 431.924L180.047 361.996L183.571 549.164L151.979 549.631L148.651 373.699C148.512 368.809 146.901 357.777 147.501 352.927L150.232 330.823Z" fill="#1D2A30"/>
<path d="M187.92 363.416C187.908 363.509 186.8 363.455 185.021 363.245C183.243 363.035 180.795 362.66 178.115 362.123C175.435 361.583 173.033 360.981 171.312 360.487C169.591 359.992 168.547 359.616 168.571 359.525C168.624 359.332 172.916 360.372 178.252 361.441C183.584 362.52 187.945 363.219 187.92 363.416Z" fill="#365462"/>
<path d="M230.045 538.377C230.045 538.57 222.961 538.725 214.224 538.725C205.484 538.725 198.401 538.57 198.401 538.377C198.401 538.187 205.484 538.031 214.224 538.031C222.961 538.031 230.045 538.187 230.045 538.377Z" fill="#365462"/>
<path d="M183.287 544.303C183.287 544.494 176.415 544.649 167.939 544.649C159.46 544.649 152.588 544.494 152.588 544.303C152.588 544.111 159.46 543.956 167.939 543.956C176.415 543.956 183.287 544.111 183.287 544.303Z" fill="#365462"/>
<path d="M179.217 543.823C179.027 543.825 178.195 502.927 177.361 452.486C176.528 402.027 176.009 361.131 176.2 361.128C176.392 361.125 177.223 402.015 178.056 452.474C178.889 502.916 179.409 543.819 179.217 543.823Z" fill="#365462"/>
<path d="M225.843 538.377C225.832 538.377 225.827 538.193 225.829 537.833C225.836 537.44 225.845 536.912 225.859 536.236C225.9 534.794 225.959 532.733 226.036 530.096C226.223 524.729 226.489 517.027 226.82 507.523C227.549 488.432 228.556 462.12 229.667 433.056C229.677 432.788 229.689 432.52 229.699 432.272L229.709 432.37C222.701 404.313 216.368 378.955 211.777 360.567C209.524 351.408 207.699 343.987 206.427 338.816C205.817 336.275 205.34 334.287 205.007 332.897C204.859 332.245 204.741 331.735 204.655 331.355C204.579 331.005 204.547 330.825 204.557 330.823C204.569 330.82 204.625 330.995 204.723 331.337C204.827 331.712 204.965 332.219 205.141 332.863C205.505 334.247 206.024 336.223 206.688 338.752C208.011 343.908 209.908 351.309 212.251 360.448C216.895 378.821 223.297 404.164 230.383 432.201L230.395 432.251L230.392 432.301C230.383 432.547 230.372 432.815 230.361 433.086C229.171 462.144 228.092 488.453 227.309 507.541C226.888 517.041 226.545 524.741 226.305 530.106C226.173 532.741 226.069 534.801 225.997 536.241C225.956 536.916 225.924 537.444 225.9 537.836C225.875 538.194 225.855 538.379 225.843 538.377Z" fill="#365462"/>
<path d="M215.644 429.927C215.676 430.116 212.581 430.805 208.731 431.467C205.856 431.961 203.373 432.3 202.289 432.361L202.287 432.089C202.647 432.189 202.84 432.265 202.833 432.313C202.825 432.363 202.617 432.376 202.245 432.361L201.436 432.325L202.243 432.089C203.285 431.786 205.739 431.276 208.613 430.782C212.464 430.121 215.611 429.737 215.644 429.927Z" fill="#365462"/>
<path d="M215.047 433.76C215.02 433.953 212.243 433.74 208.823 433.476C205.401 433.207 202.624 432.988 202.629 432.793C202.633 432.604 205.435 432.513 208.876 432.784C212.317 433.049 215.072 433.575 215.047 433.76Z" fill="#365462"/>
<path d="M150.067 332.165C150.129 331.659 150.232 330.823 150.232 330.823L150.067 332.165Z" fill="#C1C0BE"/>
<path d="M150.232 330.823C159.907 330.28 169.852 330.101 179.797 329.921L150.232 330.823Z" fill="#FA8714"/>
<path d="M158.425 336.248C157.548 336.248 156.675 336.193 155.807 336.051C153.437 335.663 151.4 334.957 149.971 332.945L149.992 332.765L150.028 332.473C150.037 332.408 150.051 332.297 150.067 332.165L150.232 330.823L179.797 329.921C189.739 329.741 199.681 329.561 209.353 329.02C194.407 332.66 178.237 334.223 162.976 335.916C161.465 336.083 159.941 336.248 158.425 336.248Z" fill="#182124"/>
<path d="M180.809 402.524L176.875 387.249C176.593 373.4 176.368 364.104 176.251 361.728C176.852 361.861 177.476 361.993 178.115 362.123C178.779 362.256 179.428 362.379 180.056 362.492L180.721 397.796L180.809 402.523M176.364 385.265L169.911 360.213L171.075 360.419C171.152 360.441 171.231 360.464 171.312 360.487C172.604 360.859 174.281 361.289 176.171 361.711C176.132 363.944 176.205 372.483 176.364 385.265Z" fill="#182124"/>
<path d="M180.056 362.492C179.428 362.379 178.779 362.256 178.115 362.123C177.476 361.993 176.852 361.861 176.251 361.728C176.243 361.557 176.235 361.423 176.227 361.324L180.047 361.996L180.056 362.492ZM176.171 361.711C174.281 361.289 172.604 360.859 171.312 360.487C171.231 360.464 171.152 360.441 171.075 360.419L176.181 361.316C176.177 361.412 176.173 361.543 176.171 361.711Z" fill="#2A414C"/>
<path d="M176.875 387.249L176.364 385.265C176.205 372.483 176.132 363.944 176.171 361.711C176.173 361.543 176.177 361.412 176.181 361.316L176.227 361.324C176.235 361.423 176.243 361.557 176.251 361.728C176.368 364.104 176.593 373.4 176.875 387.249Z" fill="#2A414C"/>
</svg>
