<svg width="62" height="60" viewBox="0 0 62 60" fill="none" xmlns="http://www.w3.org/2000/svg">
<path d="M2 23.67V53.67C2 54.7309 2.42143 55.7483 3.17157 56.4984C3.92172 57.2486 4.93913 57.67 6 57.67H56C57.0609 57.67 58.0783 57.2486 58.8284 56.4984C59.5786 55.7483 60 54.7309 60 53.67V23.67" stroke="#015CB5" stroke-width="3" stroke-linecap="round" stroke-linejoin="round"/>
<path d="M13.5 18.44C9.47915 19.6679 5.61868 21.3699 2 23.51L28.73 41.94C29.3976 42.4001 30.1892 42.6465 31 42.6465C31.8108 42.6465 32.6024 42.4001 33.27 41.94L60 23.51C56.3813 21.3699 52.5209 19.6679 48.5 18.44" stroke="#015CB5" stroke-width="3" stroke-linecap="round" stroke-linejoin="round"/>
<path d="M13.5 31.44V5.3C13.5 4.50435 13.8161 3.74129 14.3787 3.17868C14.9413 2.61607 15.7044 2.3 16.5 2.3H45.5C46.2956 2.3 47.0587 2.61607 47.6213 3.17868C48.1839 3.74129 48.5 4.50435 48.5 5.3V31.43L33.27 41.94C32.6024 42.4001 31.8108 42.6465 31 42.6465C30.1892 42.6465 29.3976 42.4001 28.73 41.94L13.51 31.44" stroke="#015CB5" stroke-width="3" stroke-linecap="round" stroke-linejoin="round"/>
<path d="M40.5 11.19H21.5" stroke="#015CB5" stroke-width="3" stroke-linecap="round" stroke-linejoin="round"/>
<path d="M31 26.6H21.5" stroke="#015CB5" stroke-width="3" stroke-linecap="round" stroke-linejoin="round"/>
<path d="M40.5 18.9H21.5" stroke="#015CB5" stroke-width="3" stroke-linecap="round" stroke-linejoin="round"/>
<path d="M24.18 38.82L3.29 56.62" stroke="#015CB5" stroke-width="3" stroke-linecap="round" stroke-linejoin="round"/>
<path d="M37.77 38.82L58.72 56.62" stroke="#015CB5" stroke-width="3" stroke-linecap="round" stroke-linejoin="round"/>
</svg>
