<svg width="61" height="73" viewBox="0 0 61 73" fill="none" xmlns="http://www.w3.org/2000/svg">
<g clip-path="url(#clip0_59_28)">
<path d="M60.8409 18.6427C60.8038 16.6879 60.7683 14.8413 60.7683 13.0547C60.7683 11.6551 59.6339 10.5204 58.234 10.5204C47.3956 10.5204 39.1436 7.40557 32.2651 0.717711C31.2811 -0.239243 29.7153 -0.238906 28.7316 0.717711C21.8539 7.40557 13.6032 10.5204 2.76552 10.5204C1.36591 10.5204 0.23121 11.6551 0.23121 13.0547C0.23121 14.8415 0.196068 16.6889 0.15856 18.6441C-0.188808 36.8356 -0.664577 61.7499 29.6683 72.2639C29.9373 72.3571 30.2177 72.4038 30.4982 72.4038C30.7786 72.4038 31.0595 72.3571 31.3281 72.2639C61.6634 61.7495 61.1882 36.8346 60.8409 18.6427ZM30.4985 67.1801C4.48411 57.7298 4.87743 37.0279 5.22649 18.7407C5.24744 17.6432 5.26771 16.5794 5.2819 15.5367C15.4326 15.1081 23.5498 12.0322 30.4985 5.97893C37.4479 12.0322 45.5665 15.1085 55.7179 15.5367C55.7321 16.5791 55.7524 17.6422 55.7733 18.739C56.1221 37.0268 56.515 57.7294 30.4985 67.1801Z" fill="#4267B2"/>
<path d="M39.2259 27.398L26.9939 39.6294L21.7742 34.4097C20.7844 33.4203 19.1797 33.4203 18.1903 34.4097C17.2006 35.3997 17.2006 37.0041 18.1903 37.9939L25.202 45.0054C25.6967 45.5001 26.3454 45.7475 26.9939 45.7475C27.6424 45.7475 28.2911 45.5001 28.7858 45.0054L42.8094 30.9823C43.7994 29.9925 43.7994 28.3878 42.8098 27.3984C41.8204 26.4087 40.2156 26.4084 39.2259 27.398Z" fill="#4267B2"/>
</g>
<defs>
<clipPath id="clip0_59_28">
<rect width="61" height="72.4031" fill="white"/>
</clipPath>
</defs>
</svg>
