<svg width="49" height="43" viewBox="0 0 49 43" fill="none" xmlns="http://www.w3.org/2000/svg">
<g clip-path="url(#clip0_59_19)">
<path d="M49 24.4999C49 17.8066 46.301 11.7328 41.9357 7.30658C41.9015 7.26128 41.8652 7.21693 41.8239 7.17566C41.7828 7.13435 41.7386 7.09806 41.6932 7.06415C37.2669 2.69868 31.1931 0 24.5 0C17.8069 0 11.733 2.69884 7.30663 7.06415C7.26133 7.0982 7.21716 7.13453 7.17585 7.17566C7.13455 7.21693 7.09825 7.2611 7.0642 7.30658C2.69885 11.7328 0 17.8066 0 24.4999C0 31.0432 2.54784 37.1946 7.17407 41.822C7.17473 41.8223 7.176 41.8238 7.176 41.8238L7.1773 41.8249C7.17796 41.8256 7.17857 41.8263 7.17923 41.8271C7.41443 42.0623 7.72273 42.1795 8.03103 42.1795C8.33947 42.1795 8.64796 42.0619 8.88316 41.8267C8.90323 41.8064 8.92138 41.7853 8.93971 41.7639L12.6528 38.0508C13.1233 37.58 13.1233 36.8171 12.6528 36.3467C12.1822 35.8763 11.4193 35.8763 10.9489 36.3467L8.05128 39.2442C4.67249 35.4845 2.71235 30.7525 2.44277 25.7047H6.54063C7.20605 25.7047 7.74552 25.1655 7.74552 24.4999C7.74552 23.8343 7.20605 23.2949 6.54063 23.2949H2.44309C2.72327 18.1103 4.7996 13.3957 8.05912 9.76314L10.9489 12.6528C11.1841 12.888 11.4925 13.0056 11.8008 13.0056C12.1091 13.0056 12.4176 12.888 12.6528 12.6528C13.1233 12.1821 13.1233 11.4193 12.6528 10.9488L9.7632 8.05893C13.3959 4.79941 18.1104 2.7231 23.2951 2.44308V6.54073C23.2951 7.20633 23.8346 7.74565 24.5 7.74565C25.1654 7.74565 25.7049 7.20633 25.7049 6.54073V2.44308C30.8896 2.7231 35.6041 4.79956 39.2367 8.05907L36.3471 10.9488C35.8765 11.4195 35.8765 12.1823 36.3471 12.6528C36.5823 12.888 36.8908 13.0056 37.199 13.0056C37.5075 13.0056 37.8157 12.888 38.0509 12.6528L40.9408 9.76314C44.2002 13.3959 46.2767 18.1103 46.5569 23.2949H42.459C41.7937 23.2949 41.254 23.8343 41.254 24.4999C41.254 25.1655 41.7937 25.7047 42.459 25.7047H46.5569C46.2872 30.7525 44.3272 35.4846 40.9488 39.2446L38.0509 36.3467C37.5805 35.8763 36.8175 35.8763 36.3471 36.3467C35.8765 36.8175 35.8765 37.58 36.3471 38.0508L40.1201 41.8238C40.3553 42.059 40.6638 42.1766 40.972 42.1766C41.1262 42.1766 41.2805 42.1472 41.4253 42.0884C41.5705 42.0296 41.7063 41.9414 41.8242 41.8238C46.4516 37.1964 49 31.0438 49 24.4999Z" fill="#4267B2"/>
<path d="M30.036 10.6822C29.418 10.4346 28.7169 10.7347 28.4695 11.3526L24.9876 20.0441C24.8253 20.0267 24.663 20.0148 24.5006 20.0148C22.8047 20.0148 21.2729 20.9542 20.5025 22.4663C19.6973 24.047 19.9035 25.9357 21.0539 27.5181C21.1715 27.6799 21.3193 27.8279 21.4822 27.9463C22.4167 28.6257 23.4605 28.9847 24.5006 28.9847C26.1965 28.9847 27.7285 28.0454 28.4987 26.5333C29.3039 24.9526 29.0977 23.0641 27.9482 21.4827C27.8306 21.3205 27.6824 21.172 27.519 21.0532C27.4312 20.9892 27.3414 20.9309 27.2515 20.8727L30.7065 12.2486C30.9539 11.631 30.6538 10.9296 30.036 10.6822ZM26.3512 25.4394C25.9944 26.1397 25.2852 26.5747 24.5004 26.5747C23.9857 26.5747 23.4676 26.395 22.9599 26.0402C22.3815 25.2098 22.268 24.3095 22.6498 23.56C23.0065 22.8597 23.7156 22.4247 24.5006 22.4247C24.7509 22.4247 25.0018 22.4681 25.2522 22.5524C25.2603 22.5558 25.2679 22.5601 25.2762 22.5635C25.3026 22.5739 25.3291 22.5824 25.3556 22.591C25.5854 22.6792 25.8141 22.8006 26.041 22.959C26.6192 23.7894 26.7329 24.6899 26.3512 25.4394Z" fill="#4267B2"/>
</g>
<defs>
<clipPath id="clip0_59_19">
<rect width="49" height="42.4666" fill="white"/>
</clipPath>
</defs>
</svg>
