<svg width="56" height="56" viewBox="0 0 56 56" fill="none" xmlns="http://www.w3.org/2000/svg">
<g clip-path="url(#clip0_59_31)">
<path d="M7 45.9621H4C2.93913 45.9621 1.92172 45.5406 1.17157 44.7905C0.421427 44.0403 0 43.0229 0 41.9621V33.9621C0 32.9012 0.421427 31.8838 1.17157 31.1336C1.92172 30.3835 2.93913 29.9621 4 29.9621H7C7.26522 29.9621 7.51957 30.0674 7.70711 30.2549C7.89464 30.4425 8 30.6968 8 30.9621V44.9621C8 45.2273 7.89464 45.4816 7.70711 45.6692C7.51957 45.8567 7.26522 45.9621 7 45.9621ZM4 31.9621C3.46957 31.9621 2.96086 32.1728 2.58579 32.5478C2.21071 32.9229 2 33.4316 2 33.9621V41.9621C2 42.4925 2.21071 43.0012 2.58579 43.3763C2.96086 43.7513 3.46957 43.9621 4 43.9621H6V31.9621H4Z" fill="#4267B2"/>
<path d="M10 48.9621C8.93913 48.9621 7.92172 48.5406 7.17157 47.7905C6.42143 47.0403 6 46.0229 6 44.9621V30.9621C6 29.9012 6.42143 28.8838 7.17157 28.1336C7.92172 27.3835 8.93913 26.9621 10 26.9621C11.0609 26.9621 12.0783 27.3835 12.8284 28.1336C13.5786 28.8838 14 29.9012 14 30.9621V44.9621C14 46.0229 13.5786 47.0403 12.8284 47.7905C12.0783 48.5406 11.0609 48.9621 10 48.9621ZM10 28.9621C9.46957 28.9621 8.96086 29.1728 8.58579 29.5478C8.21071 29.9229 8 30.4316 8 30.9621V44.9621C8 45.4925 8.21071 46.0012 8.58579 46.3763C8.96086 46.7513 9.46957 46.9621 10 46.9621C10.5304 46.9621 11.0391 46.7513 11.4142 46.3763C11.7893 46.0012 12 45.4925 12 44.9621V30.9621C12 30.4316 11.7893 29.9229 11.4142 29.5478C11.0391 29.1728 10.5304 28.9621 10 28.9621ZM52 45.9621H49C48.7348 45.9621 48.4804 45.8567 48.2929 45.6692C48.1054 45.4816 48 45.2273 48 44.9621V30.9621C48 30.6968 48.1054 30.4425 48.2929 30.2549C48.4804 30.0674 48.7348 29.9621 49 29.9621H52C53.0609 29.9621 54.0783 30.3835 54.8284 31.1336C55.5786 31.8838 56 32.9012 56 33.9621V41.9621C56 43.0229 55.5786 44.0403 54.8284 44.7905C54.0783 45.5406 53.0609 45.9621 52 45.9621ZM50 43.9621H52C52.5304 43.9621 53.0391 43.7513 53.4142 43.3763C53.7893 43.0012 54 42.4925 54 41.9621V33.9621C54 33.4316 53.7893 32.9229 53.4142 32.5478C53.0391 32.1728 52.5304 31.9621 52 31.9621H50V43.9621Z" fill="#4267B2"/>
<path d="M46 48.9621C44.9391 48.9621 43.9217 48.5406 43.1716 47.7905C42.4214 47.0403 42 46.0229 42 44.9621V30.9621C42 29.9012 42.4214 28.8838 43.1716 28.1336C43.9217 27.3835 44.9391 26.9621 46 26.9621C47.0609 26.9621 48.0783 27.3835 48.8284 28.1336C49.5786 28.8838 50 29.9012 50 30.9621V44.9621C50 46.0229 49.5786 47.0403 48.8284 47.7905C48.0783 48.5406 47.0609 48.9621 46 48.9621ZM46 28.9621C45.4696 28.9621 44.9609 29.1728 44.5858 29.5478C44.2107 29.9229 44 30.4316 44 30.9621V44.9621C44 45.4925 44.2107 46.0012 44.5858 46.3763C44.9609 46.7513 45.4696 46.9621 46 46.9621C46.5304 46.9621 47.0391 46.7513 47.4142 46.3763C47.7893 46.0012 48 45.4925 48 44.9621V30.9621C48 30.4316 47.7893 29.9229 47.4142 29.5478C47.0391 29.1728 46.5304 28.9621 46 28.9621ZM30 55.9621H26C25.2044 55.9621 24.4413 55.646 23.8787 55.0834C23.3161 54.5208 23 53.7577 23 52.9621C23 52.1664 23.3161 51.4033 23.8787 50.8407C24.4413 50.2781 25.2044 49.9621 26 49.9621H30C30.7956 49.9621 31.5587 50.2781 32.1213 50.8407C32.6839 51.4033 33 52.1664 33 52.9621C33 53.7577 32.6839 54.5208 32.1213 55.0834C31.5587 55.646 30.7956 55.9621 30 55.9621ZM26 51.9621C25.7348 51.9621 25.4804 52.0674 25.2929 52.2549C25.1054 52.4425 25 52.6968 25 52.9621C25 53.2273 25.1054 53.4816 25.2929 53.6692C25.4804 53.8567 25.7348 53.9621 26 53.9621H30C30.2652 53.9621 30.5196 53.8567 30.7071 53.6692C30.8946 53.4816 31 53.2273 31 52.9621C31 52.6968 30.8946 52.4425 30.7071 52.2549C30.5196 52.0674 30.2652 51.9621 30 51.9621H26Z" fill="#4267B2"/>
<path d="M46 53.9621H32C31.7348 53.9621 31.4804 53.8567 31.2929 53.6692C31.1054 53.4816 31 53.2273 31 52.9621C31 52.6968 31.1054 52.4425 31.2929 52.255C31.4804 52.0674 31.7348 51.9621 32 51.9621H46C47.3261 51.9621 48.5979 51.4353 49.5355 50.4976C50.4732 49.5599 51 48.2881 51 46.9621V44.9621C51 44.6968 51.1054 44.4425 51.2929 44.255C51.4804 44.0674 51.7348 43.9621 52 43.9621C52.2652 43.9621 52.5196 44.0674 52.7071 44.255C52.8946 44.4425 53 44.6968 53 44.9621V46.9621C53 48.8186 52.2625 50.5991 50.9497 51.9118C49.637 53.2246 47.8565 53.9621 46 53.9621ZM51 31.9621C50.7348 31.9621 50.4804 31.8567 50.2929 31.6692C50.1054 31.4816 50 31.2273 50 30.9621V23.9621C50.0011 23.0022 49.9377 22.0434 49.81 21.0921C49.7929 20.9607 49.8019 20.8273 49.8364 20.6995C49.8709 20.5716 49.9302 20.4518 50.011 20.3469C50.0918 20.2419 50.1924 20.154 50.3072 20.0879C50.422 20.0219 50.5487 19.9791 50.68 19.9621C50.8113 19.945 50.9447 19.9539 51.0726 19.9884C51.2004 20.0229 51.3203 20.0822 51.4252 20.163C51.5301 20.2438 51.6181 20.3445 51.6841 20.4593C51.7502 20.5741 51.7929 20.7007 51.81 20.8321C51.9429 21.87 52.0064 22.9157 52 23.9621V30.9621C52 31.2273 51.8946 31.4816 51.7071 31.6692C51.5196 31.8567 51.2652 31.9621 51 31.9621ZM5 31.9621C4.73478 31.9621 4.48043 31.8567 4.29289 31.6692C4.10536 31.4816 4 31.2273 4 30.9621V23.9621C4.00024 22.9152 4.07039 21.8696 4.21 20.8321C4.22707 20.7007 4.26984 20.5741 4.33587 20.4593C4.4019 20.3445 4.48989 20.2438 4.59482 20.163C4.69975 20.0822 4.81956 20.0229 4.94742 19.9884C5.07528 19.9539 5.20868 19.945 5.34 19.9621C5.47132 19.9791 5.598 20.0219 5.71279 20.0879C5.82758 20.154 5.92824 20.2419 6.00903 20.3469C6.08982 20.4518 6.14915 20.5716 6.18363 20.6995C6.21811 20.8273 6.22707 20.9607 6.21 21.0921C6.07565 22.0429 6.0055 23.0018 6 23.9621V30.9621C6 31.2273 5.89464 31.4816 5.70711 31.6692C5.51957 31.8567 5.26522 31.9621 5 31.9621Z" fill="#4267B2"/>
<path d="M50.8 21.9621C49.2535 21.94 47.7466 21.4701 46.4617 20.6094C45.1767 19.7486 44.1688 18.5338 43.56 17.1121C42.2234 14.0796 40.0295 11.5039 37.2484 9.70177C34.4672 7.89967 31.2199 6.94977 27.9059 6.9689C24.592 6.98802 21.3559 7.97534 18.5957 9.80941C15.8355 11.6435 13.6715 14.2443 12.37 17.2921C11.8085 18.66 10.8566 19.8323 9.63309 20.6628C8.4096 21.4933 6.96866 21.9452 5.49002 21.9621H5.20002C5.05701 21.9633 4.9154 21.9338 4.78475 21.8756C4.6541 21.8174 4.53744 21.7319 4.44266 21.6248C4.34788 21.5177 4.27718 21.3915 4.23532 21.2548C4.19346 21.118 4.18143 20.9739 4.20002 20.8321C4.96778 15.0665 7.80323 9.77592 12.1791 5.9441C16.555 2.11229 22.1735 0 27.99 0C33.8065 0 39.425 2.11229 43.8009 5.9441C48.1768 9.77592 51.0122 15.0665 51.78 20.8321C51.7986 20.9739 51.7866 21.118 51.7447 21.2548C51.7029 21.3915 51.6321 21.5177 51.5374 21.6248C51.4426 21.7319 51.3259 21.8174 51.1953 21.8756C51.0646 21.9338 50.923 21.9633 50.78 21.9621H50.8ZM28 1.96205C22.8728 1.96167 17.9065 3.75208 13.9591 7.024C10.0116 10.2959 7.33088 14.8438 6.38002 19.8821C7.29858 19.709 8.15934 19.3092 8.8841 18.7189C9.60885 18.1286 10.1746 17.3666 10.53 16.5021C11.7474 13.6423 13.6477 11.1249 16.0644 9.17052C18.481 7.21612 21.3403 5.88442 24.3914 5.29216C27.4425 4.69991 30.5923 4.86519 33.5646 5.77351C36.537 6.68183 39.2411 8.30546 41.44 10.5021C43.1182 12.1657 44.4743 14.1253 45.44 16.2821C45.8171 17.1603 46.3955 17.9375 47.1287 18.5508C47.8618 19.164 48.7289 19.5961 49.66 19.8121C48.8229 15.4866 46.7127 11.5099 43.6 8.39205C41.5564 6.33881 39.1247 4.71284 36.4464 3.6089C33.7681 2.50497 30.8968 1.94514 28 1.96205Z" fill="#4267B2"/>
<path d="M26 27.9621H21C20.7348 27.9621 20.4804 27.8567 20.2929 27.6692C20.1054 27.4816 20 27.2273 20 26.9621V25.9621C19.9992 25.8304 20.0245 25.7 20.0742 25.5781C20.124 25.4563 20.1973 25.3455 20.29 25.2521L24.67 20.8721C24.8258 20.7154 24.9319 20.5162 24.9748 20.2995C25.0177 20.0827 24.9955 19.8581 24.9111 19.654C24.8266 19.4498 24.6837 19.2752 24.5002 19.152C24.3167 19.0289 24.1009 18.9628 23.88 18.9621H23.12C22.823 18.9621 22.5381 19.0801 22.328 19.2901C22.118 19.5001 22 19.785 22 20.0821V20.9621C22 21.2273 21.8946 21.4816 21.7071 21.6692C21.5196 21.8567 21.2652 21.9621 21 21.9621C20.7348 21.9621 20.4804 21.8567 20.2929 21.6692C20.1054 21.4816 20 21.2273 20 20.9621V20.0821C20 19.6723 20.0807 19.2666 20.2375 18.8881C20.3943 18.5095 20.6241 18.1656 20.9138 17.8759C21.2035 17.5862 21.5475 17.3563 21.926 17.1995C22.3046 17.0428 22.7103 16.9621 23.12 16.9621H23.88C24.7075 16.9621 25.5011 17.2908 26.0862 17.8759C26.6713 18.461 27 19.2546 27 20.0821C27.0027 20.4924 26.9236 20.8992 26.7673 21.2786C26.6111 21.658 26.3808 22.0026 26.09 22.2921L22.41 25.9621H26C26.2652 25.9621 26.5196 26.0674 26.7071 26.2549C26.8946 26.4425 27 26.6968 27 26.9621C27 27.2273 26.8946 27.4816 26.7071 27.6692C26.5196 27.8567 26.2652 27.9621 26 27.9621ZM35 23.9621H33C31.9391 23.9621 30.9217 23.5406 30.1716 22.7905C29.4214 22.0403 29 21.0229 29 19.9621V17.9621C29 17.6968 29.1054 17.4425 29.2929 17.2549C29.4804 17.0674 29.7348 16.9621 30 16.9621C30.2652 16.9621 30.5196 17.0674 30.7071 17.2549C30.8946 17.4425 31 17.6968 31 17.9621V19.9621C31 20.4925 31.2107 21.0012 31.5858 21.3763C31.9609 21.7513 32.4696 21.9621 33 21.9621H34V17.9621C34 17.6968 34.1054 17.4425 34.2929 17.2549C34.4804 17.0674 34.7348 16.9621 35 16.9621C35.2652 16.9621 35.5196 17.0674 35.7071 17.2549C35.8946 17.4425 36 17.6968 36 17.9621V22.9621C36 23.2273 35.8946 23.4816 35.7071 23.6692C35.5196 23.8567 35.2652 23.9621 35 23.9621Z" fill="#4267B2"/>
<path d="M35 27.9621C34.7348 27.9621 34.4804 27.8567 34.2929 27.6692C34.1054 27.4816 34 27.2273 34 26.9621V22.9621C34 22.6968 34.1054 22.4425 34.2929 22.2549C34.4804 22.0674 34.7348 21.9621 35 21.9621C35.2652 21.9621 35.5196 22.0674 35.7071 22.2549C35.8946 22.4425 36 22.6968 36 22.9621V26.9621C36 27.2273 35.8946 27.4816 35.7071 27.6692C35.5196 27.8567 35.2652 27.9621 35 27.9621Z" fill="#4267B2"/>
<path d="M28 35.962C25.4288 35.962 22.9154 35.1996 20.7776 33.7711C18.6398 32.3427 16.9735 30.3124 15.9896 27.9369C15.0056 25.5615 14.7482 22.9476 15.2498 20.4259C15.7514 17.9041 16.9895 15.5877 18.8076 13.7697C20.6257 11.9516 22.9421 10.7134 25.4638 10.2118C27.9856 9.71024 30.5995 9.96768 32.9749 10.9516C35.3503 11.9355 37.3807 13.6018 38.8091 15.7396C40.2376 17.8775 41 20.3909 41 22.962C41 23.2273 40.8946 23.4816 40.7071 23.6691C40.5196 23.8567 40.2652 23.962 40 23.962C39.7348 23.962 39.4804 23.8567 39.2929 23.6691C39.1054 23.4816 39 23.2273 39 22.962C39 20.7864 38.3549 18.6597 37.1462 16.8508C35.9375 15.0418 34.2195 13.6319 32.2095 12.7994C30.1995 11.9668 27.9878 11.749 25.854 12.1734C23.7202 12.5978 21.7602 13.6455 20.2218 15.1839C18.6835 16.7222 17.6358 18.6823 17.2114 20.816C16.7869 22.9498 17.0048 25.1616 17.8373 27.1716C18.6699 29.1815 20.0798 30.8995 21.8887 32.1082C23.6977 33.3169 25.8244 33.962 28 33.962C28.2652 33.962 28.5196 34.0674 28.7071 34.2549C28.8946 34.4425 29 34.6968 29 34.962C29 35.2273 28.8946 35.4816 28.7071 35.6691C28.5196 35.8567 28.2652 35.962 28 35.962Z" fill="#4267B2"/>
<path d="M27 38.9621C26.8684 38.9628 26.7379 38.9376 26.6161 38.8878C26.4943 38.8381 26.3834 38.7647 26.29 38.6721C26.1963 38.5791 26.1219 38.4685 26.0711 38.3466C26.0203 38.2248 25.9942 38.0941 25.9942 37.9621C25.9942 37.83 26.0203 37.6993 26.0711 37.5775C26.1219 37.4556 26.1963 37.345 26.29 37.2521L28.59 34.9621L26.29 32.6721C26.1017 32.4838 25.9959 32.2284 25.9959 31.9621C25.9959 31.6958 26.1017 31.4404 26.29 31.2521C26.4783 31.0638 26.7337 30.958 27 30.958C27.2663 30.958 27.5217 31.0638 27.71 31.2521L30.71 34.2521C30.8037 34.345 30.8781 34.4556 30.9289 34.5775C30.9797 34.6993 31.0058 34.83 31.0058 34.9621C31.0058 35.0941 30.9797 35.2248 30.9289 35.3466C30.8781 35.4685 30.8037 35.5791 30.71 35.6721L27.71 38.6721C27.6166 38.7647 27.5057 38.8381 27.3839 38.8878C27.2621 38.9376 27.1316 38.9628 27 38.9621Z" fill="#4267B2"/>
</g>
<defs>
<clipPath id="clip0_59_31">
<rect width="56" height="56" fill="white"/>
</clipPath>
</defs>
</svg>
