<svg width="32" height="31" viewBox="0 0 32 31" fill="none" xmlns="http://www.w3.org/2000/svg">
<path d="M31.5 16H26.9941C27.0413 15.8932 27.0754 15.781 27.0957 15.666L27.9971 7.55565C28.0048 7.48574 27.9976 7.415 27.9762 7.34802C27.9547 7.28105 27.9194 7.21935 27.8725 7.16693C27.8256 7.11451 27.7682 7.07256 27.704 7.0438C27.6398 7.01504 27.5703 7.00011 27.5 7H26.3672C26.0065 7.00155 25.6584 7.13238 25.3859 7.36872C25.1135 7.60506 24.9348 7.93125 24.8823 8.28809L24.0664 14H18.5C18.1023 14.0004 17.721 14.1586 17.4398 14.4398C17.1586 14.721 17.0004 15.1023 17 15.5V16H15.7217C15.9019 15.6974 15.998 15.3522 16 15C15.9994 14.4698 15.7885 13.9614 15.4135 13.5865C15.0386 13.2115 14.5302 13.0006 14 13L13.501 13.0002L13.5 13L13.499 13.0002L11.6021 13.001C11.4886 13.0008 11.3784 12.9623 11.2896 12.8916L8.36039 10.5488C8.24752 10.4585 8.12693 10.3783 8 10.3091V8.5L7.9978 8.4892C8.30784 8.25823 8.55983 7.95821 8.73378 7.61294C8.90774 7.26766 8.99889 6.88662 9 6.5V0.5C9.00006 0.399829 8.97002 0.301951 8.91378 0.219062C8.85753 0.136174 8.77768 0.0720994 8.68457 0.0351516C8.59146 -0.00179614 8.4894 -0.00991241 8.39162 0.0118558C8.29385 0.0336239 8.20487 0.084272 8.13623 0.15723L7.29443 1.04981C7.24473 1.10374 7.18347 1.14573 7.11523 1.17262C7.047 1.19951 6.97356 1.2106 6.90043 1.20508L4.59082 1.06543C4.38655 1.05294 4.18189 1.08239 3.98944 1.15198C3.79699 1.22158 3.62082 1.32983 3.47179 1.47008C3.32276 1.61033 3.20402 1.77961 3.12288 1.96748C3.04174 2.15536 2.99992 2.35785 3 2.5625V6.5C3.00111 6.88662 3.09226 7.26766 3.26622 7.61294C3.44017 7.95821 3.69216 8.25823 4.0022 8.4892L4 8.5V10.0505C3.43573 10.1664 2.92869 10.4734 2.56436 10.9196C2.20003 11.3658 2.00071 11.924 2 12.5V21.5C2.00184 22.0427 2.18193 22.5697 2.51257 23H1V15.5C1 15.3674 0.947322 15.2402 0.853553 15.1464C0.759785 15.0527 0.632608 15 0.5 15C0.367392 15 0.240215 15.0527 0.146447 15.1464C0.0526784 15.2402 0 15.3674 0 15.5L0 30.5C0 30.6326 0.0526784 30.7598 0.146447 30.8536C0.240215 30.9473 0.367392 31 0.5 31C0.632608 31 0.759785 30.9473 0.853553 30.8536C0.947322 30.7598 1 30.6326 1 30.5V24H7V30.5C7 30.6326 7.05268 30.7598 7.14645 30.8536C7.24021 30.9473 7.36739 31 7.5 31C7.63261 31 7.75979 30.9473 7.85355 30.8536C7.94732 30.7598 8 30.6326 8 30.5V24H9V30.5C8.99996 30.5657 9.01287 30.6307 9.03798 30.6914C9.0631 30.7521 9.09992 30.8072 9.14636 30.8536C9.1928 30.9001 9.24793 30.9369 9.30861 30.962C9.36929 30.9871 9.43433 31 9.5 31H13.5C13.5657 31 13.6307 30.9871 13.6914 30.962C13.7521 30.9369 13.8072 30.9001 13.8536 30.8536C13.9001 30.8072 13.9369 30.7521 13.962 30.6914C13.9871 30.6307 14 30.5657 14 30.5V29.5C14 29.4343 13.9871 29.3693 13.9619 29.3087C13.9368 29.248 13.9 29.1929 13.8535 29.1465L13 28.293V21.3203C13.0006 20.974 12.8812 20.6383 12.6621 20.3701C12.443 20.102 12.1378 19.918 11.7983 19.8496L9.98267 19.4865C9.9911 19.4584 9.99691 19.4296 10 19.4004V16.7343C10.2452 16.9038 10.5354 16.9963 10.8335 17H13V18.5C13.0004 18.8977 13.1586 19.279 13.4398 19.5602C13.721 19.8414 14.1023 19.9996 14.5 20H15V30.5C15 30.5657 15.0129 30.6307 15.038 30.6914C15.0631 30.7521 15.0999 30.8072 15.1464 30.8536C15.1928 30.9001 15.2479 30.9369 15.3086 30.962C15.3693 30.9871 15.4343 31 15.5 31H17.5C17.5657 31 17.6307 30.9871 17.6914 30.962C17.7521 30.9369 17.8072 30.9001 17.8536 30.8536C17.9001 30.8072 17.9369 30.7521 17.962 30.6914C17.9871 30.6307 18 30.5657 18 30.5V20H27V30.5C27 30.5657 27.0129 30.6307 27.038 30.6914C27.0631 30.7521 27.0999 30.8072 27.1464 30.8536C27.1928 30.9001 27.2479 30.9369 27.3086 30.962C27.3693 30.9871 27.4343 31 27.5 31H29.5C29.5657 31 29.6307 30.9871 29.6914 30.962C29.7521 30.9369 29.8072 30.9001 29.8536 30.8536C29.9001 30.8072 29.9369 30.7521 29.962 30.6914C29.9871 30.6307 30 30.5657 30 30.5V20H30.5C30.8977 19.9996 31.279 19.8414 31.5602 19.5602C31.8414 19.279 31.9996 18.8977 32 18.5V16.5C32 16.4343 31.9871 16.3693 31.962 16.3086C31.9369 16.2479 31.9001 16.1928 31.8536 16.1464C31.8072 16.0999 31.7521 16.0631 31.6914 16.038C31.6307 16.0129 31.5657 16 31.5 16ZM18 15.5C18.0002 15.3674 18.0529 15.2404 18.1466 15.1466C18.2404 15.0529 18.3674 15.0002 18.5 15H24.5C24.6205 15.0001 24.7369 14.9567 24.8279 14.8777C24.9189 14.7987 24.9782 14.6896 24.9951 14.5703L25.8726 8.42871C25.8901 8.3099 25.9496 8.20131 26.0404 8.12265C26.1311 8.04399 26.2471 8.00048 26.3672 8H26.9414L26.1016 15.5557C26.0881 15.6779 26.0299 15.7908 25.9383 15.8728C25.8466 15.9548 25.728 16.0001 25.605 16H18V15.5ZM14 14C14.2652 14 14.5196 14.1054 14.7071 14.2929C14.8946 14.4804 15 14.7348 15 15C15 15.2652 14.8946 15.5196 14.7071 15.7071C14.5196 15.8946 14.2652 16 14 16V14ZM4 2.5625C3.99994 2.49428 4.01386 2.42676 4.04089 2.36412C4.06793 2.30149 4.10751 2.24505 4.15719 2.1983C4.20688 2.15154 4.26561 2.11546 4.32978 2.09228C4.39394 2.06909 4.46218 2.0593 4.53027 2.0635L6.83886 2.20315C7.05294 2.21658 7.2674 2.18385 7.46773 2.10719C7.66806 2.03052 7.84958 1.91171 8 1.75879V3H6.5C6.10231 3.00043 5.72103 3.15861 5.43982 3.43982C5.15861 3.72103 5.00043 4.10231 5 4.5C4.99983 4.63255 4.94709 4.75963 4.85336 4.85336C4.75963 4.94709 4.63256 4.99983 4.5 5H4V2.5625ZM4 6H4.5C4.89769 5.99957 5.27897 5.84139 5.56018 5.56018C5.84139 5.27897 5.99957 4.89769 6 4.5C6.00017 4.36744 6.05291 4.24037 6.14664 4.14664C6.24037 4.05291 6.36744 4.00017 6.5 4H8V6.5C7.99957 6.89769 7.84139 7.27897 7.56018 7.56018C7.27897 7.84139 6.89769 7.99957 6.5 8H5.5C5.10231 7.99957 4.72103 7.84139 4.43982 7.56018C4.15861 7.27897 4.00043 6.89769 4 6.5V6ZM5.5 9H6.5C6.66794 8.99999 6.83545 8.98306 7 8.94946V10.0172C6.93268 10.0117 6.86615 10 6.79834 10H5V8.94946C5.16455 8.98306 5.33206 8.99999 5.5 9ZM13 30H10V29H12.293L13 29.707V30ZM11.6045 20.8311C11.7169 20.8541 11.8178 20.9155 11.89 21.0047C11.9621 21.094 12.001 21.2055 12 21.3203V28H10V23.5C10 23.4343 9.98713 23.3693 9.96202 23.3086C9.9369 23.2479 9.90008 23.1928 9.85364 23.1464C9.8072 23.0999 9.75207 23.0631 9.69139 23.038C9.63071 23.0129 9.56567 23 9.5 23H4.5C4.10231 22.9996 3.72103 22.8414 3.43982 22.5602C3.15861 22.279 3.00043 21.8977 3 21.5V19.1103L11.6045 20.8311ZM10.5332 15.8994L6.7998 13.0996C6.69357 13.0208 6.56044 12.9873 6.42954 13.0064C6.29865 13.0255 6.18065 13.0956 6.10136 13.2015C6.02208 13.3074 5.98796 13.4404 6.00648 13.5714C6.02501 13.7023 6.09465 13.8206 6.20019 13.9004L9.00006 15.9996L9 19.29L3 18.0902V12.5C3.00043 12.1023 3.15861 11.721 3.43982 11.4398C3.72103 11.1586 4.10231 11.0004 4.5 11H6.79834C7.13892 11.0005 7.46927 11.1165 7.73534 11.3291L10.6655 13.6728C10.9316 13.885 11.2617 14.0006 11.602 14.001L13 14.0004V16H10.8335C10.7251 15.9999 10.6197 15.9646 10.5332 15.8994ZM17 30H16V20H17V30ZM29 30H28V20H29V30ZM31 18.5C30.9998 18.6326 30.9471 18.7596 30.8534 18.8534C30.7596 18.9471 30.6326 18.9998 30.5 19H14.5C14.3674 18.9998 14.2404 18.9471 14.1466 18.8534C14.0529 18.7596 14.0002 18.6326 14 18.5V17H31V18.5Z" fill="#015CB5"/>
</svg>
